<?xml version="1.0" encoding="utf-8"?>
<!-- Generator: Adobe Illustrator 13.0.0, SVG Export Plug-In . SVG Version: 6.00 Build 14948)  -->
<!DOCTYPE svg PUBLIC "-//W3C//DTD SVG 1.1//EN" "http://www.w3.org/Graphics/SVG/1.1/DTD/svg11.dtd">
<svg version="1.1" id="Слой_1" xmlns="http://www.w3.org/2000/svg" xmlns:xlink="http://www.w3.org/1999/xlink" x="0px" y="0px"
	 width="1000px" height="1000px" viewBox="0 0 1000 1000" enable-background="new 0 0 1000 1000" xml:space="preserve">
<g id="Слой_8_1_">
</g>
<g id="Слой_7">
</g>
<g>
	<g id="Слой_1_2_">
		<g id="Слой_1_1_">
			<g id="Capa_1">
				<g>
					<g>
						<g>
							<path fill="#4379B4" d="M770.907,634.984c23.91-43.763,37.497-93.882,37.497-147.197
								c0-169.872-138.205-308.058-308.057-308.058c-169.873,0-308.059,138.187-308.059,308.058
								c0,53.297,13.609,103.416,37.519,147.197h24.695c-25.91-43.109-41.108-93.358-41.108-147.197
								c0-158.225,128.727-286.953,286.953-286.953s286.954,128.728,286.954,286.953c0,53.839-15.181,104.088-41.072,147.197
								H770.907z"/>
							<path fill="#4379B4" d="M987.066,858.34l-48.248-68.65l48.159-69.093H795.022v-66.886H208.705v66.886H13.708l48.137,69.093
								l-48.23,68.65h218.439v-23.538h536.594v23.516L987.066,858.34L987.066,858.34z M210.928,837.215H54.236l33.387-47.463
								l-33.48-48.045h154.562v93.098h2.243L210.928,837.215L210.928,837.215z M789.75,834.805h5.272v-93.098h151.496l-33.48,48.045
								l33.368,47.463H789.73L789.75,834.805L789.75,834.805z"/>
						</g>
					</g>
				</g>
			</g>
			<g id="Слой_2">
				<path fill="none" stroke="#4379B4" stroke-width="20" d="M187.562,635.021v66.849h-85.638c0,0-8.487-14.966-4.594-24.7
					c3.089-7.722,31.546-67.748,36.055-79.648c0.186-0.492-62.825-38.869-72.39-45.305c-0.7-0.471-10.877-7.922-11.824-20.479
					c-0.702-9.316,0.216-12.511,4.84-19.812c5.634-8.895,61.199-57.096,64.869-61.115c0,0-47.834-63.243-52.214-73.464
					c-1.303-3.042-2.921-9.005-0.973-16.548c2.175-8.432,3.164-12.412,12.167-18.982c13.36-9.75,78.462-29.082,83.866-32.144
					c0.826-0.467-20.104-78.343-20.104-87.104c0-6.158,1.216-12.774,7.075-18.928c1.443-1.515,11.907-10.762,19.208-11.249
					c13.365-0.891,82.244,3.792,87.366,3.284c1.218-0.121,12.033-73.763,13.873-86.027c0.729-4.868,8.976-14.292,14.691-16.921
					c8.185-3.766,16.031-4.553,22.543-2.548c6.328,1.947,74.36,34.935,78.911,35.993c1.156,0.269,35.701-59.12,43.987-72.011
					c6.571-10.221,18.982-11.925,21.814-12.206c5.899-0.586,11.567-0.126,17.61,3.445c10.708,6.328,61.489,64.735,63.354,66.32
					c0,0,63.683-46.526,70.011-50.745c1.946-1.297,12.005-3.894,19.468-2.92c4.21,0.548,17.26,5.745,20.93,14.602
					c5.516,13.304,31.313,83.393,30.712,81.91c-0.179-0.445,57.382-14.11,78.639-18.799c11.033-2.433,20.93,0.486,26.77,5.191
					c4.247,3.422,11.255,10.512,11.358,19.793c0.323,29.042-2.597,82.744-2.807,87.339c-0.021,0.437,57.753,9.76,81.096,12.956
					c10.457,1.432,19.866,10.354,23.272,18.305c3.265,7.61,3.8,13.793-0.578,24.187c-6.559,15.563-34.291,74.57-34.291,74.57
					s70.563,42.719,76.403,47.91c5.247,4.664,7.95,14.602,7.788,21.416c-0.14,5.84-0.485,10.059-6.327,17.847
					c-5.841,7.788-63.392,59.631-63.392,59.631s43.103,58.609,48.136,66.498c5.034,7.886,6.981,13.889,5.034,23.461
					c-2.455,12.068-8.603,17.62-12.654,19.469c-31.637,14.44-83.556,31.15-83.325,31.677c1.357,3.108,8.562,35.855,8.562,35.855
					h-20.751v-66.85h-14.937c0,0,25.604-54.033,30.628-99.974c4.381-40.075,7.949-96.696-15.574-160.62
					c-23.356-63.457-59.159-105.366-87.611-132.389c-29.042-27.581-84.271-61.316-131.58-74.956
					c-44.453-12.817-86.778-16.355-131.253-12.168c-49.971,4.705-99.536,22.741-137.257,45.752
					c-51.593,31.475-88.265,77.575-94.262,84.528c-11.194,12.978-44.94,67.815-56.622,114.54
					c-11.681,46.726-12.843,84.889-11.681,102.212c5.354,79.823,34.614,133.073,34.614,133.073H187.562z"/>
			</g>
			<g id="Слой_3" display="none">
				<rect x="208.705" y="653.715" display="inline" fill="#4379B4" width="586.178" height="181.226"/>
			</g>
			<g id="Слой_4">
				<rect x="228.693" y="675.927" fill="#FFFFFF" width="544.492" height="139.898"/>
			</g>
			<g id="Слой_6">
				<path fill="#4379B4" d="M254.504,634.984h-24.695c0,0-49.869-97.126-34.646-182.682c16.224-91.18,36.606-125.747,77.876-173.274
					c79.173-91.181,216.755-115.841,305.664-89.558c74.4,21.994,115.841,57.434,143.098,85.664s58.635,68.555,73.982,128.496
					c17.197,67.168,24.984,146.992-24.876,231.354c-1.068,1.802-18.839-0.007-24.679,0c-3.342,0.003,31.055-45.425,39.491-123.95
					c3.55-33.033-3.894-102.536-19.469-133.039c-45.137-88.405-83.501-109.867-97.988-122.005
					c-24.014-20.119-81.275-45.767-127.849-51.917c-103.185-13.629-183.008,29.853-214.159,56.46
					c-28.282,24.158-88.26,59.056-112.271,203.127c-2.881,17.283,2.596,79.823,14.926,115.516
					C236.65,601.582,249.598,624.921,254.504,634.984z"/>
			</g>
			<g id="Слой_8">
			</g>
		</g>
		
			<text transform="matrix(1 0 0 1 370.4961 609.5273)" fill="none" stroke="#4379B4" stroke-width="20" font-family="'ArialMT'" font-size="432.0974">8</text>
	</g>
	<g id="Слой_2_1_">
		<line fill="none" stroke="#4379B4" stroke-width="20" x1="228.362" y1="712.292" x2="777.361" y2="712.292"/>
	</g>
	<g id="Слой_3_1_">
		<line fill="none" stroke="#4379B4" stroke-width="20" x1="227.381" y1="779.441" x2="776.38" y2="779.441"/>
	</g>
	<g id="Слой_4_1_">
		<line fill="none" stroke="#4379B4" stroke-width="20" x1="212.543" y1="761.935" x2="58.637" y2="761.617"/>
	</g>
	<g id="Слой_5">
		<line fill="none" stroke="#4379B4" stroke-width="20" x1="211.326" y1="816.204" x2="57.42" y2="815.888"/>
		<line fill="none" stroke="#4379B4" stroke-width="20" x1="947.721" y1="761.686" x2="793.815" y2="761.368"/>
	</g>
	<g id="Слой_9">
		<line fill="none" stroke="#4379B4" stroke-width="20" x1="940.885" y1="817.163" x2="786.979" y2="816.845"/>
	</g>
	<g id="Слой_6_1_">
	</g>
</g>
</svg>
