<?xml version="1.0" encoding="utf-8"?>
<!-- Generator: Adobe Illustrator 13.0.0, SVG Export Plug-In . SVG Version: 6.00 Build 14948)  -->
<!DOCTYPE svg PUBLIC "-//W3C//DTD SVG 1.1//EN" "http://www.w3.org/Graphics/SVG/1.1/DTD/svg11.dtd">
<svg version="1.1" id="Слой_1" xmlns="http://www.w3.org/2000/svg" xmlns:xlink="http://www.w3.org/1999/xlink" x="0px" y="0px"
	 width="1000px" height="1000px" viewBox="0 0 1000 1000" enable-background="new 0 0 1000 1000" xml:space="preserve">
<g id="Слой_1_1_">
	<g id="Слой_2">
	</g>
	<g id="Layer_1">
		<g>
			<g>
				<path fill="#FFFFFF" d="M681.003,332.428c-17.188-47.597-58.176-71.396-107.095-58.174c-27.766,7.933-56.853,11.9-85.939,11.9
					c-29.087,0-58.174-5.288-85.94-11.9c-48.919-13.222-89.906,10.578-107.094,58.174c-18.511,51.564-14.545,103.128-1.323,156.013
					c10.578,43.633,15.865,87.261,23.798,130.893c13.222,67.429,26.443,134.86,43.631,200.967l0,0
					c5.289,22.478,39.665,21.153,44.954-2.644c7.933-40.985,13.222-80.65,21.153-118.993c7.933-37.021,19.833-74.041,35.698-108.418
					c5.289-13.221,14.543-19.832,22.477-19.832c0,0,2.643,0,3.967,0c1.323,0,3.967,0,3.967,0c7.933,0,15.865,6.611,22.476,19.832
					c15.866,34.377,27.766,71.396,35.698,108.418c7.934,39.665,13.223,79.327,21.154,118.993
					c3.967,23.799,38.343,25.121,44.953,2.644l0,0c15.865-66.106,29.087-133.537,43.629-200.967
					c9.257-43.631,13.223-87.26,23.801-130.893C695.545,435.554,699.512,383.991,681.003,332.428z"/>
				<path fill="#4379B4" d="M593.741,855.997L593.741,855.997c-19.834,0-37.021-13.222-40.987-33.054
					c-3.967-19.831-6.611-40.986-10.578-59.497c-3.966-21.153-6.608-39.665-10.575-59.498
					c-6.612-33.053-18.512-68.752-34.377-104.449c-2.644-5.288-5.288-7.934-6.61-9.254h-1.322h-1.324c-1.321,0-1.321,0-2.643,0
					c-1.323,0-3.968,2.644-6.611,9.254c-15.867,35.697-27.765,70.074-34.376,104.449c-3.967,19.833-6.611,38.343-10.577,59.498
					c-2.645,19.832-6.611,39.666-10.577,59.497c-3.966,19.833-21.153,33.054-40.987,33.054c-18.51,0-34.376-11.9-39.664-30.409
					c-15.866-63.462-29.088-128.247-40.987-190.389l-2.644-11.898c-3.966-18.511-6.611-37.021-9.255-54.21
					c-3.966-25.119-7.933-50.241-14.543-75.359c-10.577-44.953-21.154-104.451,1.322-166.592
					c17.188-46.275,54.208-74.039,99.162-74.039c10.577,0,21.153,1.323,31.73,3.966c27.765,7.933,55.53,11.9,80.651,11.9
					s52.888-3.966,80.653-11.9c10.578-2.644,21.153-3.966,31.73-3.966c44.954,0,81.974,27.765,99.16,74.039
					c22.478,62.141,13.221,121.639,1.322,166.592c-6.608,25.119-10.575,50.241-14.542,75.359
					c-2.644,18.511-5.289,37.021-9.256,54.21l-2.644,11.898c-11.899,62.142-25.12,126.927-40.986,189.069
					C628.117,842.775,612.251,855.997,593.741,855.997z M490.613,551.903h1.323c15.864,1.324,30.408,11.9,38.341,30.409
					c17.189,38.343,30.408,76.686,37.021,112.383c3.968,19.833,7.934,40.985,10.575,60.82c2.646,19.831,6.612,39.663,10.578,58.173
					c0,2.644,2.645,2.644,3.968,2.644l0,0c2.644,0,2.644-1.321,2.644-2.644c15.865-62.141,27.765-126.927,40.985-187.745
					l2.646-11.899c3.966-17.189,6.609-35.698,9.254-52.888c3.967-25.118,7.935-52.883,14.545-78.004
					c14.542-59.498,14.542-104.45-1.325-145.437c-14.542-39.665-46.274-56.853-84.617-46.275
					c-30.409,7.933-60.818,13.221-89.906,13.221c-29.087,0-59.498-5.289-91.228-13.221c-38.342-10.578-70.073,7.933-84.618,46.275
					c-14.544,40.987-14.544,85.94-1.323,145.437c6.611,26.443,10.577,52.884,14.544,78.004c2.645,17.189,5.29,35.7,9.256,52.888
					l2.646,11.899c11.899,62.142,25.12,125.604,40.984,187.745c0,1.323,1.324,2.644,3.967,2.644c1.323,0,3.966,0,3.966-2.644
					c3.967-19.832,6.612-39.666,10.578-59.497c2.644-19.831,6.611-40.986,10.577-60.819c6.611-35.697,19.832-74.04,37.019-112.383
					c7.933-18.511,22.477-30.409,38.342-30.409h1.323H484h1.323L490.613,551.903L490.613,551.903z"/>
			</g>
			<g>
				<path fill="#FFFFFF" d="M294.936,324.494c-18.511,44.954-52.887,79.329-97.839,97.839c-3.966,1.323-3.966,6.611,0,9.256
					c44.953,18.51,79.33,52.885,97.839,97.838c1.323,3.966,6.612,3.966,9.255,0c18.51-44.953,52.886-79.327,97.839-97.838
					c3.966-1.324,3.966-6.611,0-9.256c-44.954-18.51-79.33-52.886-97.839-97.839C301.546,320.528,296.257,320.528,294.936,324.494z"
					/>
				<path fill="#4379B4" d="M298.902,546.615c-7.933,0-14.544-3.966-17.189-11.9c-17.188-40.984-48.92-74.04-89.906-89.905
					c-7.932-2.645-11.899-10.578-11.899-17.188c0-6.611,3.966-14.544,11.899-17.188c40.986-17.189,74.041-50.243,89.906-91.229
					c2.645-6.61,9.256-11.899,17.189-11.899c7.932,0,14.543,3.967,17.188,11.899c17.188,40.988,48.919,74.041,89.906,89.907
					c6.611,2.644,11.9,9.255,11.9,17.188c0,7.933-3.966,14.544-11.9,17.188c-40.988,17.188-74.039,48.92-89.907,89.906
					C313.444,541.327,306.834,546.615,298.902,546.615z M220.894,427.623c33.055,18.51,60.819,44.952,79.33,79.326
					c18.511-33.051,44.953-60.818,79.329-79.326c-33.054-18.511-60.818-44.954-79.329-79.33
					C281.713,381.347,253.948,409.112,220.894,427.623z"/>
			</g>
			<g>
				<path fill="#FFFFFF" d="M749.753,124.851c-15.865,39.666-47.597,71.396-87.26,87.262c-3.967,1.323-3.967,6.611,0,7.933
					c39.665,15.866,71.394,47.597,87.26,87.261c1.323,3.967,6.611,3.967,7.935,0c15.865-39.664,47.597-71.395,87.261-87.261
					c3.966-1.323,3.966-6.612,0-7.933c-39.664-15.866-71.395-47.597-87.261-87.262C756.364,120.883,751.076,120.883,749.753,124.851
					z"/>
				<path fill="#4379B4" d="M753.722,323.172c-7.935,0-14.545-3.966-17.189-11.9c-14.544-35.697-43.632-64.785-79.329-79.329
					c-6.609-2.644-11.899-9.255-11.899-17.188c0-7.933,3.967-14.543,11.899-17.188c35.699-14.543,64.785-43.63,79.329-79.328
					c2.643-6.611,9.255-11.9,17.189-11.9c7.932,0,14.542,3.967,17.188,11.9c14.542,35.698,43.631,64.785,79.328,79.328
					c6.608,2.645,11.898,9.256,11.898,17.188c0,7.933-3.966,14.545-11.898,17.188c-35.699,14.544-64.786,43.632-79.328,79.329
					C768.264,319.207,761.653,323.172,753.722,323.172z M687.612,216.079c27.767,15.865,51.564,38.343,66.109,66.106
					c15.864-27.765,38.34-51.563,66.106-66.106c-27.767-15.866-51.564-38.342-66.106-66.107
					C737.854,176.414,715.379,200.212,687.612,216.079z"/>
			</g>
			<g>
				<path fill="#F9F9F9" d="M581.84,65.353c-11.899,30.41-35.697,54.208-66.107,66.108c-2.643,1.323-2.643,5.289,0,6.61
					c30.41,11.899,54.208,35.698,66.107,66.106c1.324,2.645,5.289,2.645,6.611,0c11.899-30.409,35.698-54.208,66.107-66.106
					c2.645-1.322,2.645-5.288,0-6.61c-30.409-11.9-54.208-35.698-66.107-66.108C587.129,62.709,583.164,62.709,581.84,65.353z"/>
				<path fill="#4379B4" d="M584.485,220.046c-6.61,0-13.22-3.967-15.865-10.578c-10.576-26.443-31.731-47.598-58.174-58.175
					c-6.611-2.644-10.578-9.255-10.578-15.866c0-6.611,3.966-13.222,10.578-15.865c26.442-10.577,47.598-31.73,58.174-58.174
					c2.646-7.934,9.255-11.901,15.865-11.901s13.222,3.966,15.866,10.578c10.576,26.443,31.731,47.597,58.175,58.174
					c6.609,2.644,10.575,9.254,10.575,15.865s-3.966,13.222-10.575,15.865c-26.443,10.578-47.599,31.731-58.175,58.175
					C597.707,216.079,591.096,220.046,584.485,220.046z M540.854,134.106c18.511,10.578,33.052,26.443,43.63,43.631
					c10.577-18.51,26.442-33.054,43.632-43.631c-18.512-10.578-33.054-26.443-43.632-43.63
					C573.908,108.986,558.043,123.528,540.854,134.106z"/>
			</g>
		</g>
	</g>
	<g id="Слой_2_2_">
	</g>
</g>
<g id="Слой_2_1_">
	<circle fill="none" stroke="#4379B4" stroke-width="10" cx="498.825" cy="495.097" r="481.476"/>
</g>
</svg>
