<?xml version="1.0" encoding="utf-8"?>
<!-- Generator: Adobe Illustrator 13.0.0, SVG Export Plug-In . SVG Version: 6.00 Build 14948)  -->
<!DOCTYPE svg PUBLIC "-//W3C//DTD SVG 1.1//EN" "http://www.w3.org/Graphics/SVG/1.1/DTD/svg11.dtd">
<svg version="1.1" id="Слой_1" xmlns="http://www.w3.org/2000/svg" xmlns:xlink="http://www.w3.org/1999/xlink" x="0px" y="0px"
	 width="1000px" height="1000px" viewBox="0 0 1000 1000" enable-background="new 0 0 1000 1000" xml:space="preserve">
<g id="Слой_1_4_">
	<g id="Слой_1_3_">
		<g id="Слой_1_2_">
			<g id="Слой_1_1_">
				<g id="Layer_1">
					<g>
						<g>
							<path fill="#4379B4" d="M736.455,336.561c-1.11-24.656-5.521-50.45-15.005-76.67
								c-19.169-51.609-60.455-82.575-110.593-82.575c-11.797,0-23.595,1.475-35.395,4.423
								c-30.959,8.848-61.927,13.271-89.944,13.271c-28.017,0-58.982-4.423-89.949-13.271c-11.795-2.948-23.592-4.423-35.389-4.423
								c-50.135,0-91.422,30.966-109.118,82.575c-25.067,69.306-14.746,137.135-2.948,187.269
								c7.372,28.013,11.796,56.032,16.219,84.052c2.949,19.17,5.898,39.813,10.321,60.461l1.718,7.726
								c0.568,1.692,0.929,3.405,1.143,5.14l0.088,0.401c14.746,70.78,28.017,141.562,45.712,212.34
								c5.898,20.644,23.593,33.919,44.238,33.919c22.113,0,41.288-14.75,45.711-36.866c4.424-22.12,8.847-44.236,11.796-66.356
								c4.421-22.117,7.373-44.235,11.797-66.354c7.372-38.342,20.646-76.68,38.338-116.49c2.95-7.375,5.898-10.324,7.375-10.324
								c1.477,0,1.477,0,2.95,0h2.948c1.473,1.478,4.424,4.425,7.375,10.324c17.693,39.811,30.966,79.63,38.34,116.488
								c4.425,22.119,7.373,42.764,11.796,66.356c4.423,20.645,7.374,44.236,11.796,66.356
								c4.423,22.116,23.598,36.866,45.713,36.866c20.648,0,38.341-13.271,44.234-35.391
								c17.696-69.311,32.442-141.561,45.715-210.863l2.95-14.749c0.182-1.178,0.381-2.374,0.573-3.562
								c-0.021-0.13-0.034-0.259-0.058-0.387c-0.173-1.01,0.066-1.876,0.532-2.563c2.877-17.294,6.652-35.617,9.271-53.949
								c4.421-28.013,8.847-56.031,16.218-84.051c1.171-4.425,2.321-8.98,3.424-13.65c0.342-6.893,5.323-27.257,6.115-30.692
								c2.694-16.891,4.384-34.858,4.275-53.561C736.346,344.054,736.38,340.313,736.455,336.561z M680.161,438.315
								c-7.368,28.016-11.796,58.981-16.216,87.001c-2.951,19.169-5.897,39.811-10.32,58.979l-2.952,13.268
								c-14.747,67.83-28.016,140.086-45.713,209.393c0,1.475,0,2.952-2.948,2.952c-1.472,0-4.426-1.476-4.426-4.426
								c-4.419-20.643-8.845-42.76-11.796-64.88c-2.95-22.116-7.369-45.71-11.797-67.83c-7.37-39.809-22.117-82.571-41.287-125.334
								c-8.853-20.648-25.068-32.445-42.764-33.918h-11.799c-17.695,0-33.915,13.269-42.762,33.918
								c-19.167,42.762-33.915,85.525-41.289,125.334c-4.423,22.12-8.847,45.714-11.797,67.83
								c-4.423,20.643-7.373,42.762-11.796,64.88c0,4.426-2.95,4.426-4.423,4.426c-2.95,0-4.422-1.476-4.422-2.952
								c-17.696-69.307-32.443-140.083-45.712-209.393l-2.95-13.268c-4.423-19.17-7.373-39.811-10.321-58.979
								c-4.424-28.019-8.849-57.513-16.221-87.001c-1.254-5.645-2.394-11.162-3.433-16.58c-4.212-21.534-4.616-22.929-5.34-34.639
								c-4.744-42.324-1.521-77.82,10.248-110.983c16.22-42.763,51.609-63.406,94.372-51.61
								c35.391,8.849,69.306,14.747,101.74,14.747c32.445,0,66.36-5.898,100.275-14.747c42.762-11.796,78.152,7.373,94.37,51.61
								C696.385,321.824,696.385,371.958,680.161,438.315z"/>
						</g>
						<path fill="#4379B4" d="M783.413,416.206c0.395-0.77,0.767-1.551,1.113-2.338c-0.07,0.087-0.146,0.168-0.221,0.253
							C784.048,414.821,783.746,415.517,783.413,416.206z"/>
					</g>
					<g>
						<g>
							<path fill="#4379B4" d="M728.559,418.125c6.578-40.829,7.06-88.109-10.77-136.901
								c-18.746-49.949-59.119-79.919-108.146-79.919c-11.538,0-23.074,1.426-34.609,4.281
								c-30.282,8.563-60.563,12.843-87.96,12.843c-27.396,0-57.68-4.279-87.959-12.843c-11.537-2.856-23.073-4.281-34.608-4.281
								c-49.028,0-89.401,29.971-106.707,79.919c-24.513,67.077-14.42,132.724-2.884,181.248
								c7.209,27.113,11.536,54.232,15.862,81.347c2.884,18.555,5.768,38.535,10.094,58.515l2.883,12.846
								c14.42,68.502,27.397,137.009,44.7,205.511c5.769,19.979,23.073,32.823,43.262,32.823c21.626,0,40.375-14.271,44.702-35.679
								c4.325-21.411,8.651-42.815,11.536-64.222c4.324-21.408,7.207-42.814,11.537-64.222
								c7.208-37.104,20.19-74.212,37.492-112.744c2.884-7.134,5.766-9.992,7.208-9.992c1.441,0,1.441,0,2.882,0h2.884
								c1.444,1.429,4.326,4.284,7.213,9.992c17.305,38.532,30.28,77.065,37.492,112.742c4.325,21.409,7.208,41.388,11.535,64.224
								c4.328,19.979,7.214,42.814,11.535,64.222c4.327,21.408,23.074,35.679,44.705,35.679c20.188,0,37.493-12.844,43.258-34.252
								C663,752.188,677.419,682.255,690.4,615.178l2.882-14.272c2.884-18.551,7.209-38.533,10.092-58.515
								c4.325-27.114,8.65-54.229,15.864-81.35c1.14-4.279,2.263-8.691,3.346-13.208
								C722.913,441.158,727.783,421.447,728.559,418.125z M677.416,453.909c-7.209,27.119-11.531,57.084-15.859,84.202
								c-2.886,18.55-5.77,38.532-10.097,57.085l-2.884,12.844c-14.418,65.65-27.4,135.578-44.703,202.656
								c0,1.423,0,2.851-2.884,2.851c-1.443,0-4.328-1.428-4.328-4.279c-4.324-19.982-8.651-41.389-11.532-62.794
								c-2.884-21.407-7.207-44.239-11.535-65.652c-7.213-38.529-21.633-79.917-40.379-121.305
								c-8.654-19.981-24.513-31.396-41.821-32.822h-11.534c-17.304,0-33.167,12.841-41.817,32.822
								c-18.747,41.39-33.167,82.776-40.376,121.309c-4.326,21.412-8.653,44.243-11.537,65.648
								c-4.326,19.982-7.208,41.387-11.535,62.795c0,4.282-2.883,4.282-4.327,4.282c-2.881,0-4.324-1.428-4.324-2.853
								c-17.305-67.076-31.724-135.578-44.7-202.656l-2.885-12.842c-4.325-18.552-7.208-38.534-10.093-57.087
								c-4.328-27.113-8.653-55.661-15.862-84.199c-1.228-5.462-2.341-10.804-3.358-16.047c-4.119-20.842-4.512-22.194-5.221-33.527
								c-4.638-40.961-1.487-75.317,10.021-107.414c15.862-41.389,50.469-61.368,92.289-49.95
								c34.607,8.563,67.773,14.272,99.5,14.272c31.723,0,64.891-5.71,98.055-14.272c41.817-11.417,76.424,7.137,92.287,49.95
								C693.277,341.164,693.277,389.687,677.416,453.909z"/>
						</g>
						<path fill="#4379B4" d="M778.387,432.51c0.382-0.744,0.745-1.5,1.089-2.26c-0.071,0.083-0.145,0.161-0.218,0.247
							C779.004,431.17,778.712,431.843,778.387,432.51z"/>
					</g>
				</g>
				<g id="Слой_2">
					<g>
						<g>
							<path fill="#4379B4" d="M644.553,399.697c-12.728-33.926-34.091-45.151-67.388-45.151c-7.835,0-75.064,22.239-93.671,22.239
								c-18.608,0-89.201-21.565-97.038-21.565c-33.299,0-57.657,9.202-69.41,43.13c-7.404,20.258-6.272,56.438-2.473,91.995
								c4.743,44.395,13.646,87.811,15.276,98.04c10.108,48.519,21.94,165.068,33.693,211.597
								c3.297,11.423-0.789,9.215,10.107,11.456c0.78-9.847-2.551-16.477-1.347-26.282c-6.738-47.844,3.281-207.027,9.097-245.629
								c6.395-36.001,36.73-65.15,100.41-64.691c70.194,0.789,80.866,16.851,97.038,58.631
								c8.761,72.437,21.901,240.91,15.166,260.453c2.019,10.108,6.904,28.538,10.777,14.15
								c11.753-45.558,22.91-177.904,22.91-177.904c1.961-12.598,18.257-129.408,18.785-131.664
								C650.961,470.768,656.665,432.836,644.553,399.697z"/>
						</g>
						<path fill="#4379B4" d="M679.66,511.641c0.263-0.508,0.503-1.025,0.739-1.539c-0.047,0.055-0.1,0.113-0.146,0.169
							C680.08,510.729,679.877,511.187,679.66,511.641z"/>
					</g>
				</g>
			</g>
			<g id="Слой_4">
			</g>
			<g id="Слой_7">
			</g>
		</g>
		<g id="Слой_2_1_">
			<rect x="486.87" y="109.61" fill="#4379B4" width="306.06" height="403.416"/>
		</g>
		<g id="Слой_3">
			<path opacity="0.85" fill="#FFFFFF" enable-background="new    " d="M487,261.036l0.203-66.124c0,0,39.148-2.231,50.776-4.936
				c11.972-2.785,57.34-15.009,81.675-12.98c17.848,1.487,49.354,10.924,70.313,32.453c22.381,22.988,40.295,54.629,46.312,119.131
				c6.318,67.682-22.713,139.954-26.57,183.565c-0.254,2.896-44.079,0.201-44.079,0.201s10.547-55.169,17.915-90.462
				c4.036-19.325,6.669-57.457,3.854-76.672c-3.247-22.176-13.86-100.334-79.307-101.417
				C582.309,243.369,555.301,259.201,487,261.036z"/>
		</g>
		<g id="Слой_13">
			<path opacity="0.85" fill="#FFFFFF" enable-background="new    " d="M772.832,120.951c-4.044-3.135-9.711-2.176-12.657,2.129
				l-42.092,61.584l-23.189-25.106c-3.413-3.884-9.147-4.071-12.797-0.421c-3.652,3.626-3.838,9.733-0.397,13.595
				c0,0,28.175,31.26,32.218,34.396c4.049,3.136,9.712,2.176,12.659-2.129l48.272-70.591
				C777.794,130.077,776.881,124.064,772.832,120.951z"/>
		</g>
		<g id="Слой_7_1_">
		</g>
	</g>
	<g id="Слой_2_2_">
		<path opacity="0.85" fill="#FFFFFF" enable-background="new    " d="M486.864,474.753l0.268-98.44c0,0,78.97-20.825,88.707-21.906
			c29.567-3.285,51.499,7.783,65.448,37.321c9.196,19.471,11.357,35.428,10.547,57.874c-0.812,22.447-7.844,63.014-7.844,63.014
			l-73.56,0.271c0,0-12.427-20.922-28.124-28.396C525.267,476.377,489.838,474.483,486.864,474.753z"/>
	</g>
</g>
<g id="Слой_2_3_">
	<circle fill="none" stroke="#4379B4" stroke-width="10" cx="502.833" cy="486.59" r="481.476"/>
</g>
</svg>
