<?xml version="1.0" encoding="utf-8"?>
<!-- Generator: Adobe Illustrator 13.0.0, SVG Export Plug-In . SVG Version: 6.00 Build 14948)  -->
<!DOCTYPE svg PUBLIC "-//W3C//DTD SVG 1.1//EN" "http://www.w3.org/Graphics/SVG/1.1/DTD/svg11.dtd">
<svg version="1.1" id="Слой_1" xmlns="http://www.w3.org/2000/svg" xmlns:xlink="http://www.w3.org/1999/xlink" x="0px" y="0px"
	 width="1000px" height="1000px" viewBox="0 0 1000 1000" enable-background="new 0 0 1000 1000" xml:space="preserve">
<g id="Слой_1_1_">
	<g id="Layer_1">
		<g>
			<g>
				<path fill="#FFFFFF" d="M714.277,223.93c-19.783-57.417-66.961-86.127-123.266-70.177c-31.959,9.57-65.438,14.355-98.92,14.355
					c-33.479,0-66.959-6.379-98.917-14.354c-56.307-15.95-103.483,12.758-123.267,70.177
					c-21.306,62.203-16.74,126.002-1.522,189.799c12.174,51.038,18.263,105.267,27.394,157.901
					c15.219,81.341,30.436,162.684,50.22,242.431l0,0c6.086,27.114,45.655,25.52,51.742-3.19
					c9.129-49.443,15.217-97.293,24.349-143.545c9.129-44.658,22.826-89.318,41.088-130.785
					c6.088-15.951,16.74-23.926,25.872-23.926c0,0,3.042,0,4.563,0c1.522,0,4.565,0,4.565,0c9.13,0,18.263,7.975,25.873,23.926
					c18.262,41.467,31.957,86.127,41.09,130.785c9.129,47.849,15.217,95.695,24.348,143.545c4.564,28.71,44.133,30.306,51.742,3.19
					l0,0c18.262-79.747,33.48-161.09,50.219-242.431c10.652-52.634,15.219-105.268,27.393-157.901
					C729.496,349.932,735.584,286.133,714.277,223.93z"/>
				<path fill="#4379B4" d="M613.838,855.529L613.838,855.529c-22.826,0-42.611-15.948-47.176-39.873
					c-4.564-23.924-7.607-49.444-12.174-71.773c-4.564-25.519-7.609-47.85-12.174-71.771
					c-7.607-39.875-21.307-82.938-39.566-126.003c-3.043-6.379-6.087-9.567-7.61-11.163h-1.522h-1.521c-1.521,0-1.521,0-3.042,0
					s-4.566,3.189-7.61,11.163c-18.262,43.065-31.958,84.532-39.567,126.001c-4.566,23.926-7.609,47.851-12.174,71.773
					c-3.042,23.924-7.608,47.85-12.175,71.773c-4.564,23.925-24.349,39.873-47.175,39.873c-21.306,0-39.568-14.354-45.655-36.684
					c-18.262-76.559-31.958-153.113-47.176-229.672l-3.044-14.355c-4.564-22.33-7.609-44.658-10.652-65.393
					c-4.564-30.305-9.13-60.609-16.739-90.913c-12.175-54.229-22.828-127.597,3.043-202.559
					c18.261-55.822,60.873-89.317,112.615-89.317c12.175,0,24.349,1.595,36.524,4.785c31.957,9.57,63.916,14.355,92.83,14.355
					c28.915,0,60.874-4.785,92.831-14.355c12.176-3.19,24.352-4.785,36.525-4.785c51.74,0,94.354,33.495,114.135,89.317
					c25.873,74.961,15.219,146.735,1.523,200.963c-7.611,30.305-12.176,60.608-16.742,90.913
					c-3.043,22.33-7.607,44.66-10.652,65.395l-3.043,15.949c-13.697,74.965-28.916,153.113-47.176,228.078
					C653.404,841.176,635.145,855.529,613.838,855.529z M495.136,490.288h1.522c18.261,1.591,35,14.354,44.132,36.682
					c19.783,46.253,35,92.507,42.611,135.57c4.564,23.924,9.131,49.443,12.174,73.367c3.043,23.925,7.609,47.85,12.176,70.179
					c0,3.189,3.041,4.783,4.563,4.783l0,0c3.045,0,3.045-1.596,3.045-3.188c18.264-74.963,31.957-153.115,47.176-226.483
					l3.045-14.354c4.564-20.734,7.609-43.063,10.65-63.799c4.566-30.302,9.133-63.797,16.74-94.1
					c16.74-71.772,16.74-126.001-1.521-175.443c-16.738-47.85-53.264-68.583-97.396-55.824c-35,9.571-70.002,15.95-103.481,15.95
					c-33.481,0-68.481-6.38-105.005-15.949c-44.133-12.759-80.657,9.57-97.396,55.823c-16.74,49.444-16.74,103.673-1.521,175.444
					c7.609,31.899,12.173,63.797,16.74,94.102c3.043,20.733,6.087,43.063,10.652,63.797l3.044,14.355
					c13.696,74.962,28.914,151.52,47.176,226.482c0,1.595,1.521,3.189,4.565,3.189c1.521,0,4.564,0,4.564-4.785
					c4.566-23.924,7.609-47.851,12.176-70.179c3.043-23.922,7.608-49.443,12.174-73.367c7.608-43.063,22.828-89.316,42.611-135.568
					c9.132-22.331,25.871-36.684,44.132-36.684h1.521h1.521l0,0h1.523L495.136,490.288L495.136,490.288z"/>
			</g>
			<g>
				<path fill="#F7F8F9" d="M578.836,437.653H403.827c-13.695,0-25.869-15.949-25.869-36.685v-71.772
					c0-19.139,10.651-36.683,25.869-36.683h175.009c13.697,0,25.871,15.949,25.871,36.683v71.772
					C604.707,421.704,594.057,437.653,578.836,437.653z"/>
				<path fill="#4379B4" d="M578.836,459.982H403.827c-25.869,0-47.175-25.52-47.175-59.012v-71.772
					c0-33.493,21.305-59.013,47.175-59.013h175.009c25.871,0,47.178,25.52,47.178,59.013v71.772
					C626.014,434.463,606.23,459.982,578.836,459.982z M578.836,316.438H405.349c0,0-4.564,4.783-4.564,12.758v71.772
					c0,7.975,3.042,12.759,4.564,14.355h173.487c1.523-1.596,4.566-6.38,4.566-12.759v-71.772
					C583.402,321.222,580.359,316.438,578.836,316.438z"/>
			</g>
			<path fill="#4379B4" d="M379.478,388.209h-184.14c-12.174,0-21.306-11.165-21.306-22.329c0-11.165,9.13-22.329,21.306-22.329
				h184.139c12.175,0,21.305,9.569,21.305,22.329S391.653,388.209,379.478,388.209z"/>
			<path fill="#4379B4" d="M788.848,388.209H604.707c-12.174,0-21.305-9.569-21.305-22.329s9.131-22.329,21.305-22.329H788.85
				c12.172,0,21.303,9.569,21.303,22.329S801.021,388.209,788.848,388.209z"/>
		</g>
	</g>
	<g id="Слой_2">
	</g>
</g>
<g id="Слой_2_1_">
	<circle fill="none" stroke="#4379B4" stroke-width="10" cx="498.825" cy="495.097" r="481.476"/>
</g>
</svg>
