<?xml version="1.0" encoding="utf-8"?>
<!-- Generator: Adobe Illustrator 13.0.0, SVG Export Plug-In . SVG Version: 6.00 Build 14948)  -->
<!DOCTYPE svg PUBLIC "-//W3C//DTD SVG 1.1//EN" "http://www.w3.org/Graphics/SVG/1.1/DTD/svg11.dtd">
<svg version="1.1" id="Слой_1" xmlns="http://www.w3.org/2000/svg" xmlns:xlink="http://www.w3.org/1999/xlink" x="0px" y="0px"
	 width="1000px" height="1000px" viewBox="0 0 1000 1000" enable-background="new 0 0 1000 1000" xml:space="preserve">
<g>
	<g id="Слой_1_2_">
		<g id="Слой_1_1_">
			<g id="Layer_1">
				<g>
					<g>
						<path fill="#FAFBFC" d="M719.646,230.369c-20.512-56.807-69.43-85.21-127.813-69.431
							c-33.137,9.468-67.853,14.201-102.569,14.201c-34.715,0-69.43-6.312-102.564-14.201
							c-58.386-15.779-107.302,12.624-127.815,69.431c-22.091,58.384-17.357,116.769-4.734,176.732h20.996
							c-2.235-10.104-4.037-20.292-4.735-30.618c-0.156-2.315,1.559-3.469,3.356-3.471c-0.87-4.457,5.978-6.318,6.971-1.813
							c0.149,0.672,0.313,1.337,0.482,2.003c1.155-1.392,3.155-2.015,4.563-1.013c1.001-2.789,4.98-3.173,6.448-1.098
							c0.211-0.49,0.5-0.918,0.853-1.27c0.024-2.466,0.041-4.933,0.044-7.399c0.004-4.65,7.215-4.651,7.211,0
							c-0.002,3.015-0.03,6.03-0.064,9.044c0.039,0.219,0.063,0.446,0.064,0.691c0.003,1.416,0.022,2.831,0.046,4.247
							c0.474,2.188,0.865,4.407,1.2,6.641c1-0.422,2.21-0.391,3.22,0.099c0.408-0.21,0.851-0.358,1.302-0.425v-5.152
							c0-3.712,4.583-4.457,6.441-2.246c0.802-2.406,1.697-4.791,2.705-7.146c1.38-3.227,5.223-1.781,6.394,0.697
							c1.244-2.909,5.909-3.681,6.685,0.165c0.065,0.316,0.131,0.632,0.195,0.95c0.539-0.287,1.133-0.39,1.729-0.342
							c1.113-2.494,4.569-2.883,6.368-0.387c0.206,0.284,0.391,0.582,0.585,0.873c2.137-1.014,5.317,0.019,5.315,3.109
							c-0.001,1.71-0.018,3.417-0.031,5.127c1.223-0.021,2.384,0.545,2.929,1.867c1.473-2.899,6.825-2.348,6.835,1.66
							c0.024,8.366,0.442,16.808,0.386,25.208h18.28l6.311-48.917c1.578-11.045,11.043-18.936,22.091-18.936h178.309
							c11.048,0,20.515,7.891,22.093,18.936l6.313,48.917h20.236v-28.455c0-2.555,2.3-3.809,4.313-3.456
							c0.046-0.25,0.094-0.497,0.142-0.748c0.521-2.563,2.946-3.071,4.805-2.22c0.564-1.727,1.239-3.438,2.049-5.13
							c0.388-0.809,0.99-1.31,1.68-1.56c0.037-1.081,0.467-1.902,1.104-2.46c-0.008-0.577-0.029-1.155-0.029-1.731
							c-0.019-4.038,6.127-4.96,7.081-0.959c1.354,5.677,1.881,11.433,2.015,17.227c0.594,1.472,1.125,2.972,1.615,4.488
							c0.546-4.735,0.95-9.491,1.187-14.265c0.129-2.658,2.562-3.793,4.566-3.401c1.272-3.355,7.112-2.955,6.97,1.238
							c-0.052,1.52-0.111,3.041-0.166,4.562c0.894-2.934,1.817-5.86,2.819-8.766c1.328-3.854,6.89-3.182,7.082,0.959
							c0.015,0.306,0.03,0.612,0.044,0.919c0.116-1.027,0.227-2.054,0.318-3.083c0.404-4.58,7.036-4.707,7.212,0
							c0.16,4.333,0.073,8.643-0.186,12.936c1.291,0.422,2.337,1.517,2.347,3.289c0.013,2.337,0.104,4.707,0.227,7.098
							c0.583-1.164,1.151-2.333,1.707-3.51c1.405-2.977,5.272-1.926,6.401,0.547c0.633-3.14,1.261-6.28,1.888-9.421
							c0.521-2.602,3.01-3.085,4.884-2.178c2.384-1.258,6.197,0.666,5.317,4.095c-0.464,1.803-0.975,3.586-1.515,5.358
							c1.574,0.216,2.907,1.35,2.723,3.419c-0.777,8.605-2.579,16.961-4.825,25.208h22.761
							C735.428,347.138,740.161,288.752,719.646,230.369z"/>
						<path fill="#4379B4" d="M740.161,222.479c-20.515-55.229-64.697-88.366-118.349-88.366c-12.623,0-25.248,1.578-36.292,4.734
							c-33.137,9.468-66.271,14.202-96.256,14.202c-31.559,0-64.695-4.734-96.254-14.202c-12.624-3.156-25.249-4.734-37.872-4.734
							c-53.652,0-97.833,33.137-116.77,89.944c-20.513,55.228-22.091,113.612-4.733,187.776l3.156,17.359h43.483
							c-0.082-0.597-0.154-1.195-0.228-1.792c-4.224-16.752-8.466-33.646-9.635-50.917c-0.069-1.022,0.227-1.817,0.732-2.388
							c-8.849-53.239-6.531-95.924,8.251-135.837c17.358-47.339,55.229-67.852,100.99-55.229
							c37.87,9.469,74.164,15.78,108.876,15.78c34.718,0,71.011-6.313,107.301-15.78c45.763-12.623,83.636,7.89,100.989,55.229
							c13.828,43.014,17.179,86.035,7.154,142.156c0.148,0.424,1.038-4.68,0.947-4.124c-3.058,19.16-6.405,37.845-11.297,53.363
							l45.802-0.462l4.733-18.937C762.253,336.091,760.675,277.707,740.161,222.479z"/>
					</g>
					<g>
						<path fill="#FCFCFC" d="M700.047,407.101c-4.773,17.537-11.554,34.591-14.775,52.545c-0.821,4.572-7.768,2.629-6.955-1.917
							c0.133-0.727,0.27-1.454,0.412-2.179c-1.561-0.457-2.877-1.816-2.67-3.748c-1.612,6.333-3.399,12.608-5.932,18.661
							c-1.765,4.224-8.748,2.372-6.955-1.917c3.391-8.104,5.431-16.619,7.497-25.126c-1.661,2.181-5.912,2.136-6.415-1.079
							c-0.32-2.043-0.547-4.075-0.707-6.104c-0.876,0.002-1.759-0.301-2.441-0.857c-0.044,0.291-0.086,0.586-0.13,0.879
							c-0.271,9.278-0.449,18.554-0.457,27.839c-0.004,4.649-7.216,4.649-7.21,0c0.004-7.359,0.12-14.713,0.301-22.067
							c-1.541,3.071-6.787,2.026-6.793-1.729c0-0.968-0.004-1.938-0.015-2.912c-0.158,0.569-0.313,1.139-0.473,1.708
							c-1.145,4.02-6.896,2.879-7.104-0.658c-0.766-0.152-1.51-0.548-2.087-1.123c-0.15-0.02-0.301-0.049-0.449-0.083
							c0.015,1.021,0.03,2.045,0.032,3.066c0.013,4.16-5.743,4.594-6.977,1.32c-1.758-0.055-3.479-1.212-3.479-3.484v-31.036
							h-17.081l-9.469-48.917c-1.578-11.045-11.043-18.936-22.092-18.936H399.318c-11.045,0-20.514,7.891-22.09,18.936
							l-6.313,48.917h-18.278c-0.067,10.067-0.818,20.077-3.761,29.831c-0.632,2.097-2.52,2.781-4.192,2.45
							c-1.211,3.28-2.934,6.313-5.387,8.878c-1.7,1.776-4.385,1.132-5.663-0.73c-1.158-1.688-2.164-3.455-3.062-5.273
							c-0.777-0.43-1.399-1.122-1.628-2.078c-0.301-1.246-0.565-2.499-0.809-3.752c-0.258-0.739-0.502-1.486-0.731-2.239
							c-1.463,1.428-4.071,1.193-5.389-0.568c-0.06,0.384-0.117,0.769-0.18,1.151c-0.688,4.217-6.859,2.884-7.083-0.959
							c-0.007-0.122-0.011-0.244-0.017-0.367c0.024,2.136,0.02,4.271,0,6.408c3.271,9.506,6.366,19.068,9.262,28.696
							c1.345,4.465-5.616,6.358-6.953,1.917c-1.519-5.048-3.096-10.077-4.715-15.093c-1.525,0.733-3.523,0.417-4.657-1.351
							c-4.13-6.445-6.268-13.837-8.331-21.151c-0.104-0.021-0.206-0.042-0.307-0.07c-0.748,2.135-3.307,2.808-5.115,2.002
							c-0.491,0.171-1.023,0.241-1.557,0.225c0.329,3.255,0.766,6.499,1.351,9.726c0.823,4.546-6.126,6.487-6.954,1.917
							c-0.504-2.783-0.899-5.576-1.223-8.375c-1.75,0.507-3.741-0.138-4.185-2.443c-0.541-2.806-0.961-5.623-1.309-8.449
							c-1.698-6.74-3.397-13.5-4.901-20.3h-20.998c1.578,3.156,1.578,7.891,1.578,11.046
							c12.625,50.493,18.936,104.145,29.98,156.217c15.781,80.479,31.561,160.952,52.074,239.85
							c6.311,26.823,47.338,25.248,53.65-3.156c9.467-48.916,15.779-96.256,25.249-142.018
							c9.468-44.182,23.667-88.365,42.603-129.393c6.314-15.78,17.357-23.669,26.826-23.669c0,0,3.156,0,4.733,0
							c1.578,0,4.733,0,4.733,0c9.467,0,18.936,7.889,26.826,23.669c18.934,41.027,33.137,85.211,42.604,129.393
							c9.467,47.34,15.778,94.678,25.247,142.018c4.733,28.404,45.762,29.98,53.648,3.156
							c18.938-78.897,34.716-159.375,52.074-239.85c11.043-52.072,15.779-104.145,28.404-156.217
							c1.578-3.156,1.578-7.891,1.578-11.046h-25.912v-0.002H700.047L700.047,407.101z"/>
						<path fill="#4379B4" d="M678.537,507.065c-3.156,20.513-6.313,42.604-11.044,63.117l-3.155,12.624
							c-14.203,74.165-29.981,149.906-48.918,225.648c0,1.578,0,3.156-3.156,3.156c-1.578,0-4.732-1.578-4.732-4.733
							c-4.734-23.668-9.467-47.339-12.622-71.009c-3.156-23.67-7.89-48.916-12.626-72.587c-7.89-42.604-23.67-88.365-44.182-134.125
							c-9.472-22.092-24.824-29.96-43.761-31.536l-3.582-0.022h-6.313c-18.934,0-36.293,14.202-45.76,36.294
							c-20.515,45.76-36.294,91.521-44.185,134.124c-4.733,23.671-9.469,48.919-12.625,72.588
							c-4.733,22.092-7.888,45.762-12.625,69.428c0,3.157-3.156,3.157-4.732,3.157c-3.155,0-4.733-1.578-4.733-3.157
							c-18.935-74.164-34.714-149.906-48.917-224.07l-3.155-14.201c-4.734-20.511-7.89-42.604-11.045-63.116
							c-4.361-23.257-23.932-120.708-25.611-135.572l-43.819,9.335l6.312,31.56c0,3.155,1.578,6.311,1.578,7.887
							c7.89,28.405,12.624,59.963,17.357,89.945c3.155,22.093,6.313,44.184,11.045,64.696l3.156,14.202
							c14.202,74.164,29.981,151.482,47.339,227.227c6.313,22.091,25.248,36.293,47.339,36.293c23.668,0,44.183-15.78,48.916-39.449
							c4.732-23.669,9.469-47.339,12.625-71.008c4.732-23.67,7.888-47.34,12.623-71.012c7.891-41.026,22.092-82.051,41.028-124.655
							c3.155-7.89,6.312-11.047,7.888-11.047c1.578,0,1.579,0,3.157,0h3.156c1.578,1.579,4.734,4.734,7.889,11.047
							c18.936,42.604,33.137,85.208,41.028,124.656c4.734,23.669,7.89,47.339,12.623,71.011
							c3.156,22.093,7.889,47.339,12.626,71.008c4.733,23.669,25.247,39.449,48.915,39.449c22.093,0,42.604-14.202,47.34-34.715
							v-1.578c18.937-75.743,33.138-153.063,48.918-227.227l3.156-12.625c3.155-20.512,7.886-42.604,11.045-64.696
							c4.732-29.98,11.045-59.961,17.356-89.944c0-3.157,1.577-4.735,1.577-7.891l6.311-31.56l-44.369-4.807
							c-1.683,5.048-8.054,36.551-12.908,52.145"/>
						<path fill="#4379B4" d="M626.054,370.948l-3.156-29.981c-3.155-22.092-22.095-37.872-44.188-37.872H400.403
							c-22.091,0-41.029,15.78-44.185,37.872l-2.923,26.317c0.023,0.175,0.04,0.355,0.04,0.546
							c0.047,16.828,3.06,121.525-0.792,138.024l38.94,1.442l5.763-156.862h178.309l12.798,154.699l41.103-0.722"/>
					</g>
				</g>
			</g>
		</g>
		<g id="Слой_2">
			<rect x="282.129" y="475.994" fill="#4379B4" width="96.265" height="38.94"/>
		</g>
		<g id="Слой_3">
			<rect x="601.212" y="473.831" fill="#4379B4" width="96.266" height="38.939"/>
		</g>
		<g id="Слой_4">
			<path fill="#4379B4" d="M372.735,515.591c-6.491,0-74.998,0.359-74.998,0.359l-1.068-7.306l65.969-7.116l28.846,5.769
				c-0.361,3.605-0.361,5.769-4.688,7.572"/>
		</g>
		<g id="Слой_5">
			<path fill="#4379B4" d="M607.013,512.585c6.492,0,74.997,0.36,74.997,0.36l1.067-7.307l-65.969-7.115l-28.846,5.768
				c0.36,3.606,0.36,5.77,4.688,7.573"/>
		</g>
	</g>
	<g id="Слой_2_1_">
		<path fill="#FFFFFF" d="M289.805,475.808c-1.923,0-19.71,0.721-19.71,0.721s-14.183-69.229-19.591-118.866
			c-0.781-7.169-4.928-78.242,7.572-111.414c12.5-33.173,21.995-46.754,32.09-57.33c10.096-10.578,35.695-24.519,51.56-26.683
			c23.142-3.156,74.637,12.5,96.272,17.308c21.633,4.807,39.3,5.529,50.838,5.048s74.038-11.539,86.537-15.865
			c12.498-4.327,43.748-13.461,63.458-8.654c19.712,4.808,54.115,21.946,69.95,55.167c18.388,38.581,25.238,62.738,24.156,104.204
			c-0.855,32.799-5.945,72.008-9.373,87.617c-7.212,32.811-14.063,65.982-14.063,65.982l-34.614,0.361c0,0,0-7.211,0-16.346
			c0-9.135,1.442-42.307,1.442-50.48c0-8.172-4.327-37.498-10.577-56.247c-6.25-18.75-2.884-34.134-20.19-47.594
			c-17.307-13.462-14.903-25-68.267-26.442c-53.363-1.442-76.442-6.729-113.939-2.403c-37.499,4.327-60.575,1.922-74.997,11.538
			c-14.423,9.613-41.825,28.364-41.344,51.44c0.481,23.076,2.404,62.979-1.443,84.131
			C341.727,442.156,289.805,475.808,289.805,475.808z"/>
	</g>
</g>
<g id="Слой_2_2_">
	<circle fill="none" stroke="#4379B4" stroke-width="10" cx="502.792" cy="497.475" r="481.476"/>
</g>
</svg>
