<?xml version="1.0" encoding="utf-8"?>
<!-- Generator: Adobe Illustrator 13.0.0, SVG Export Plug-In . SVG Version: 6.00 Build 14948)  -->
<!DOCTYPE svg PUBLIC "-//W3C//DTD SVG 1.1//EN" "http://www.w3.org/Graphics/SVG/1.1/DTD/svg11.dtd">
<svg version="1.1" xmlns="http://www.w3.org/2000/svg" xmlns:xlink="http://www.w3.org/1999/xlink" x="0px" y="0px" width="1000px"
	 height="1000px" viewBox="0 0 1000 1000" enable-background="new 0 0 1000 1000" xml:space="preserve">
<g id="Слой_1">
	<g>
		<path fill="#4379B4" d="M615.487,538.232l7.976-51.528c0-4.068-2.657-6.778-6.646-6.778h-58.515c-3.987,0-6.648-2.713-6.648-6.781
			l2.661-35.255c0-4.069-2.661-6.781-6.65-6.781H425.319c-3.988,0-6.649,4.067-6.649,6.781l3.99,33.899
			c0,4.07-2.66,6.781-6.649,6.781h-57.183c-3.991,0-6.649,4.068-6.649,6.78l7.979,51.529c0,2.713,2.659,5.424,6.647,5.424h62.503
			c2.661,0,5.32,2.711,6.65,5.424l3.99,28.475c0,4.068-2.66,6.779-6.65,6.779h-57.183c-3.99,0-6.649,4.068-6.649,6.781l7.979,51.529
			c0,2.711,2.66,5.422,6.649,5.422h58.513c2.66,0,5.318,2.713,6.648,5.422l3.989,28.479c0,4.066-2.66,6.781-6.65,6.781h-54.521
			c-3.99,0-6.65,4.066-6.65,6.777l7.979,51.529c0,2.711,2.661,5.422,6.65,5.422h55.854c2.66,0,5.318,2.711,6.649,5.424l3.989,28.477
			c0,4.066-2.659,6.779-6.649,6.779H408.03c-3.989,0-6.648,4.068-6.648,6.781l7.978,51.525c0,2.713,2.66,5.426,6.649,5.426h59.843
			h39.896h43.885c2.657,0,5.316-2.713,6.646-5.426l7.979-51.525c0-4.07-2.659-6.781-6.649-6.781h-39.894
			c-3.989,0-6.648-2.713-6.648-6.779l2.659-28.477c0-2.713,2.657-5.424,6.648-5.424h45.216c2.66,0,5.319-2.711,6.646-5.422
			l7.98-51.529c0-4.068-2.66-6.777-6.649-6.777h-45.216c-3.987,0-6.646-2.715-6.646-6.781l2.659-28.479
			c0-2.711,2.66-5.422,6.648-5.422h51.865c2.657,0,5.318-2.715,6.647-5.422l7.979-51.529c0-4.068-2.659-6.781-6.65-6.781h-51.86
			c-3.989,0-6.648-2.711-6.648-6.779l2.659-28.475c0-2.715,2.659-5.424,6.65-5.424h57.184
			C612.827,543.658,615.487,542.301,615.487,538.232z"/>
		<g>
			<path fill="#FDFEFF" d="M658.553,299.293c-15.345-42.494-51.936-63.741-95.612-51.937c-24.787,7.082-50.757,10.624-76.723,10.624
				c-25.968,0-51.937-4.721-76.724-10.624c-43.674-11.804-80.266,9.443-95.612,51.937c-11.803,33.05-12.984,66.101-8.263,100.332
				c1.182,8.262,8.263,15.344,16.526,15.344h328.144c8.265,0,15.347-5.901,16.528-15.344
				C671.537,366.576,670.354,332.343,658.553,299.293z"/>
			<path fill="#4379B4" stroke="#FFFFFF" d="M652.237,416.682H324.093c-16.526,0-30.69-17.673-33.052-40.165
				c-4.721-54.625-2.361-102.823,9.443-147.808c15.345-56.23,48.396-89.969,88.529-89.969c9.444,0,18.886,1.606,28.33,4.819
				c23.607,9.64,48.395,14.459,72.003,14.459c22.428,0,47.213-4.82,72.004-14.459c8.264-3.213,17.706-4.819,27.148-4.819
				c40.133,0,73.184,33.74,88.526,89.969c11.805,44.985,15.347,93.183,9.444,147.808
				C684.108,399.009,669.944,416.682,652.237,416.682z M389.013,183.726c-25.968,0-46.035,22.492-56.658,61.05
				s-12.984,77.117-8.262,125.314h328.145l0,0c4.723-48.198,2.362-88.363-8.262-125.314c-12.982-48.198-41.313-69.083-75.546-56.231
				c-27.146,9.64-54.297,16.066-80.264,16.066c-25.969,0-53.118-6.427-81.446-16.066
				C400.817,185.332,394.916,183.726,389.013,183.726z"/>
		</g>
	</g>
</g>
<g id="Слой_2">
	<circle fill="none" stroke="#4379B4" stroke-width="10" cx="501.81" cy="496.608" r="481.476"/>
</g>
</svg>
