<?xml version="1.0" encoding="utf-8"?>
<!-- Generator: Adobe Illustrator 13.0.0, SVG Export Plug-In . SVG Version: 6.00 Build 14948)  -->
<!DOCTYPE svg PUBLIC "-//W3C//DTD SVG 1.1//EN" "http://www.w3.org/Graphics/SVG/1.1/DTD/svg11.dtd">
<svg version="1.1" xmlns="http://www.w3.org/2000/svg" xmlns:xlink="http://www.w3.org/1999/xlink" x="0px" y="0px" width="1000px"
	 height="1000px" viewBox="0 0 1000 1000" enable-background="new 0 0 1000 1000" xml:space="preserve">
<g id="Слой_1">
	<g id="Layer_1">
		<g>
			<g>
				<path fill="#4379B4" d="M668.572,413.624c5.186-32.489,5.564-70.115-8.479-108.944c-14.77-39.751-46.566-63.601-85.18-63.601
					c-9.088,0-18.172,1.136-27.26,3.406c-23.85,6.815-47.698,10.223-69.279,10.223c-21.577,0-45.428-3.407-69.277-10.223
					c-9.086-2.27-18.172-3.406-27.257-3.406c-38.615,0-70.416,23.85-84.043,63.601c-19.307,53.377-11.358,105.622-2.27,144.234
					c5.677,21.579,9.085,43.159,12.493,64.739c2.271,14.763,4.543,30.662,7.95,46.564l2.271,10.221
					c11.358,54.514,21.578,109.029,35.207,163.543c4.544,15.898,18.171,26.121,34.071,26.121c17.037,0,31.801-11.359,35.208-28.395
					c3.408-17.034,6.815-34.07,9.087-51.104c3.406-17.036,5.678-34.072,9.086-51.108c5.679-29.528,15.9-59.057,29.527-89.721
					c2.271-5.68,4.543-7.949,5.679-7.949c1.137,0,1.137,0,2.271,0h2.271c1.138,1.136,3.409,3.407,5.68,7.949
					c13.63,30.664,23.849,61.33,29.529,89.721c3.406,17.036,5.68,32.937,9.086,51.108c3.408,15.9,5.678,34.07,9.086,51.104
					c3.406,17.035,18.172,28.395,35.209,28.395c15.902,0,29.527-10.223,34.072-27.257c13.629-53.378,24.982-109.029,35.205-162.407
					l2.271-11.358c2.271-14.765,5.68-30.666,7.951-46.564c3.406-21.578,6.813-43.155,12.492-64.736
					c0.904-3.41,1.787-6.918,2.635-10.513C664.129,431.954,667.963,416.27,668.572,413.624z M628.291,442.103
					c-5.68,21.575-9.086,45.427-12.492,67.004c-2.271,14.765-4.545,30.665-7.951,45.429l-2.27,10.22
					c-11.359,52.243-21.58,107.896-35.209,161.276c0,1.134,0,2.268-2.271,2.268c-1.135,0-3.406-1.134-3.406-3.405
					c-3.406-15.898-6.814-32.935-9.086-49.971c-2.273-17.037-5.68-35.209-9.086-52.245c-5.68-30.661-17.035-63.599-31.803-96.531
					c-6.813-15.903-19.302-24.989-32.937-26.123h-9.083c-13.631,0-26.121,10.22-32.937,26.123
					c-14.766,32.933-26.121,65.87-31.799,96.531c-3.409,17.036-6.815,35.208-9.086,52.245c-3.408,15.9-5.679,32.937-9.087,49.971
					c0,3.405-2.271,3.405-3.406,3.405c-2.271,0-3.407-1.134-3.407-2.268c-13.629-53.38-24.986-107.894-35.207-161.276l-2.271-10.22
					c-3.407-14.764-5.679-30.664-7.951-45.429c-3.407-21.577-6.813-44.292-12.494-67.004c-0.965-4.348-1.841-8.6-2.644-12.771
					c-3.243-16.586-3.555-17.659-4.112-26.679c-3.652-32.598-1.169-59.938,7.891-85.479c12.494-32.937,39.751-48.835,72.688-39.75
					c27.257,6.815,53.377,11.358,78.364,11.358c24.988,0,51.111-4.543,77.23-11.358c32.938-9.084,60.193,5.679,72.688,39.75
					C640.785,352.38,640.785,390.994,628.291,442.103z"/>
			</g>
			<g>
				<path fill="#4379B4" d="M424.161,466.805c0.135-0.261,0.267-0.517,0.396-0.782c-0.25-0.325-0.407-0.722-0.423-1.185
					c-0.017,0.045-0.029,0.092-0.045,0.137C424.102,465.584,424.125,466.197,424.161,466.805z"/>
				<path fill="#4379B4" d="M480.734,465.226c-0.159,0.522-0.328,1.042-0.491,1.561c0.162-0.012,0.319-0.022,0.479-0.034
					C480.726,466.242,480.726,465.734,480.734,465.226z"/>
			</g>
			<path fill="#4379B4" d="M707.818,425.072c0.303-0.592,0.584-1.191,0.855-1.799c-0.055,0.065-0.115,0.13-0.168,0.195
				C708.305,424.005,708.072,424.541,707.818,425.072z"/>
		</g>
	</g>
	<g id="Слой_2">
		<path opacity="0.75" fill="#4379B4" enable-background="new    " d="M39.621,627.214c19.616-9.53,71.341-59.893,94.483-76.229
			c23.142-16.334,99.311-68.412,115.705-78.951c19.058-12.25,44.921-28.586,47.644-16.333c2.723,12.251,24.5,129.318,27.223,144.29
			c2.724,14.972,17.698,89.841,21.781,103.455c4.083,13.611,9.528,44.918,16.335,46.28c6.804,1.359,11.342,12.585,24.729,10.377
			c13.387-2.209-12.478,4.597-20.646-3.569c-8.168-8.17-13.612-10.894-21.779-29.949c-8.167-19.057-14.976-42.196-20.419-59.894
			c-5.444-17.695-38.113-119.788-54.449-126.596c-16.334-6.804-112.981,35.393-137.483,44.922
			c-24.502,9.528-76.229,38.115-83.034,43.559C40.613,639.084,39.621,627.214,39.621,627.214z"/>
		<path opacity="0.29" fill="#F69321" enable-background="new    " d="M-97.305,642.189"/>
	</g>
	<g id="Слой_3">
		<path opacity="0.75" fill="#4379B4" enable-background="new    " d="M951.068,655.583
			c-19.617-9.529-105.676-87.813-128.82-104.148c-23.139-16.333-99.309-68.412-115.699-78.95
			c-19.061-12.252-44.926-28.587-47.646-16.337c-2.723,12.253-24.5,129.318-27.225,144.292
			c-2.719,14.973-17.695,89.841-21.781,103.454c-4.08,13.609-9.527,44.921-16.332,46.28c-6.807,1.362-11.344,12.588-24.73,10.38
			c-13.385-2.21,12.48,4.594,20.646-3.572c8.17-8.167,13.611-10.892,21.779-29.946c8.168-19.06,14.975-42.201,20.418-59.896
			c5.445-17.695,38.115-119.788,54.451-126.594s112.98,35.389,137.482,44.921c24.502,9.529,123.649,70.672,130.456,76.116
			C960.872,667.025,951.068,655.583,951.068,655.583z"/>
	</g>
	<g id="Слой_4">
		<polygon fill="#4379B4" points="719.299,369.75 728.402,400.646 753.922,381 743.125,411.344 775.32,410.454 748.75,428.656 
			775.32,446.857 743.125,445.969 753.922,476.311 728.402,456.667 719.299,487.56 710.199,456.667 684.678,476.311 
			695.473,445.969 663.277,446.857 689.848,428.656 663.277,410.454 695.473,411.344 684.678,381 710.199,400.646 		"/>
	</g>
	<g id="Слой_5">
		<path fill="#4379B4" d="M753.988,413.647c-2.791,2.728-7.822,2.105-11.238-1.389l0,0c-3.416-3.497-3.918-8.541-1.123-11.269
			l163.387-159.572c2.793-2.728,2.143,1.189,5.557,4.686l5.68-3.296c3.416,3.497,3.92,8.542,1.131,11.269L753.988,413.647z"/>
	</g>
</g>
<g id="Слой_2_1_">
	<circle fill="none" stroke="#4379B4" stroke-width="10" cx="501.833" cy="495.589" r="482.976"/>
</g>
</svg>
