<?xml version="1.0" encoding="utf-8"?>
<!-- Generator: Adobe Illustrator 13.0.0, SVG Export Plug-In . SVG Version: 6.00 Build 14948)  -->
<!DOCTYPE svg PUBLIC "-//W3C//DTD SVG 1.1//EN" "http://www.w3.org/Graphics/SVG/1.1/DTD/svg11.dtd">
<svg version="1.1" id="Слой_1" xmlns="http://www.w3.org/2000/svg" xmlns:xlink="http://www.w3.org/1999/xlink" x="0px" y="0px"
	 width="1000px" height="1000px" viewBox="0 0 1000 1000" enable-background="new 0 0 1000 1000" xml:space="preserve">
<g id="Слой_2">
	<g>
		<g>
			<path fill="#4379B4" d="M433.291,567.086c-0.146,0.331-0.294,0.662-0.441,0.993c5.427-0.124,10.86-0.077,16.289,0.066
				c6.429-10.524,17.738-17.508,28.626-23.084c0.813-0.963,1.617-1.893,2.398-2.78c4.553-5.181,9.459-10.053,14.624-14.641h-11.761
				C462.447,527.641,443.581,543.075,433.291,567.086z"/>
			<path fill="#4379B4" d="M717.985,440.174c-2.719,10.336-2.826,9.331-4.968,20.136c8.976-9.617,52.094-41.88,60.884-58.409
				c0.979-1.836,4.779-4.141,4.914-4.729c7.829-49.063,8.403-105.881-12.806-164.517c-22.296-60.027-70.318-96.043-128.629-96.043
				c-13.723,0-27.44,1.714-41.163,5.145c-36.015,10.291-72.03,15.436-104.615,15.436c-32.586,0-68.602-5.145-104.618-15.436
				c-13.72-3.43-27.441-5.145-41.162-5.145c-58.312,0-106.333,36.016-126.913,96.042c-29.156,80.607-14.958,148.967-1.238,207.277
				c0.2,0.76,45.086,58.007,52.513,61.918c-2.918-16.304-5.991-45.179-10.115-61.676c-1.459-6.565-2.783-12.982-3.993-19.283
				c-4.899-25.046-5.368-26.667-6.21-40.29c-5.517-49.225-1.768-90.511,11.918-129.082c18.865-49.737,60.025-73.747,109.762-60.025
				c41.162,10.29,80.607,17.149,118.336,17.149c37.733,0,77.18-6.86,116.624-17.149c49.735-13.721,90.897,8.575,109.764,60.025
				C736.854,304.686,736.854,362.997,717.985,440.174z"/>
		</g>
	</g>
</g>
<g id="Layer_1">
	<path fill="#4379B4" d="M452.598,571.306l0.922,1.845l15.675-13.832C461.818,562.085,456.287,566.695,452.598,571.306z"/>
	<path fill="#4379B4" d="M795.81,391.637c-2.766-7.377-9.221-12.909-16.598-14.753c-6.455-1.844-13.832,0-18.44,3.689
		c0.025-1.868-24.239,22.914-32.273,31.351l-21.208,21.208l-36.886-36.884c-9.22-9.22-23.052-9.22-31.351-0.922L454.638,553.003
		l-86.676-107.884c-7.377-9.221-20.287-11.065-30.43-4.611l-59.935,38.73l-19.363-25.819c-0.023-0.105-0.045-0.211-0.068-0.315
		c-17.567-22.969-13.76-18.021-20.506-27.085c-4.223-5.672-19.076-20.551-19.076-20.551c-9.533-7.271-13.831-9.221-22.13-8.298
		c-8.299,1.844-14.753,7.377-17.52,15.675c-12.91,43.339-20.287,83.911-20.287,123.56c0,194.563,130.014,319.965,331.951,319.965
		S822.55,730.967,822.55,536.404C822.55,491.223,813.33,442.352,795.81,391.637z M490.6,829.629
		c-224.067,0-304.288-151.223-304.288-292.303c0-34.113,5.533-70.078,16.597-106.962l57.17,69.157
		c7.377,9.22,20.285,11.064,30.428,4.61l59.935-38.727l84.83,104.195l-22.128,19.363c-5.536,4.612-6.454,13.83-0.925,19.363
		c2.767,2.766,6.456,4.613,10.144,4.613s6.453-0.925,9.221-3.688l31.351-27.663l192.715-164.132l36.886,36.883
		c9.222,9.223,23.976,9.223,32.274,0l47.024-47.026c15.677,45.183,23.054,88.52,23.054,129.091
		C794.888,678.406,715.589,829.629,490.6,829.629z"/>
	<path fill="#4379B4" d="M222.998,411.784l-1.051-1.262"/>
	<path fill="#4379B4" d="M257.668,452.466c-0.17-0.804-0.338-1.604-0.504-2.407"/>
</g>
<g id="Layer_1_1_">
	<path fill="#4379B4" d="M454.524,578.136l0.879,1.666l14.945-12.48C463.315,569.817,458.041,573.978,454.524,578.136z"/>
	<path fill="#4379B4" d="M781.772,415.991c-2.639-6.658-8.794-11.649-15.826-13.314c-6.155-1.665-13.188,0-17.585,3.33
		c0.023-1.685-23.111,20.68-30.771,28.293l-20.224,19.14l-35.168-33.288c-8.79-8.321-21.979-8.321-29.892-0.832l-175.839,142.3
		l-82.645-97.362c-7.033-8.322-19.342-9.986-29.014-4.162l-57.147,34.953l-18.463-23.301c-0.022-0.096-0.043-0.19-0.064-0.285
		c-16.75-20.727-13.121-16.261-19.553-24.441c-4.027-5.12-18.188-18.547-18.188-18.547c-9.088-6.564-13.187-8.322-21.101-7.49
		c-7.912,1.665-14.066,6.658-16.704,14.147c-12.309,39.112-19.343,75.726-19.343,111.508c0,175.587,123.966,288.763,316.51,288.763
		c192.543,0,316.512-113.174,316.512-288.763C807.268,505.865,798.476,461.76,781.772,415.991z M490.758,811.27
		c-213.644,0-290.135-136.477-290.135-263.797c0-30.788,5.275-63.246,15.825-96.531l54.51,62.413
		c7.035,8.321,19.342,9.984,29.013,4.162l57.148-34.952l80.886,94.035l-21.101,17.475c-5.276,4.162-6.155,12.483-0.88,17.477
		c2.637,2.495,6.155,4.162,9.671,4.162c3.516,0,6.154-0.834,8.791-3.329l29.893-24.967L648.13,439.292l35.169,33.287
		c8.794,8.323,22.859,8.323,30.771,0l44.841-42.44c14.945,40.775,21.979,79.888,21.979,116.503
		C780.893,674.793,705.28,811.27,490.758,811.27z"/>
	<path fill="#4379B4" d="M235.604,434.173l-1.002-1.139"/>
	<path fill="#4379B4" d="M268.661,470.888c-0.162-0.726-0.323-1.448-0.481-2.173"/>
</g>
<g id="Слой_2_1_">
	<ellipse fill="none" stroke="#4379B4" stroke-width="10" cx="500.293" cy="489.843" rx="481.476" ry="480.728"/>
</g>
</svg>
