<?xml version="1.0" encoding="utf-8"?>
<!-- Generator: Adobe Illustrator 13.0.0, SVG Export Plug-In . SVG Version: 6.00 Build 14948)  -->
<!DOCTYPE svg PUBLIC "-//W3C//DTD SVG 1.1//EN" "http://www.w3.org/Graphics/SVG/1.1/DTD/svg11.dtd">
<svg version="1.1" id="Слой_1" xmlns="http://www.w3.org/2000/svg" xmlns:xlink="http://www.w3.org/1999/xlink" x="0px" y="0px"
	 width="1000px" height="1000px" viewBox="0 0 1000 1000" enable-background="new 0 0 1000 1000" xml:space="preserve">
<g id="Layer_1">
	<g>
		<g>
			<path fill="#4379B4" d="M637.311,375.935c-15.56-41.887-49.065-67.019-89.755-67.019c-9.575,0-19.148,1.197-28.722,3.591
				c-25.133,7.181-50.264,10.771-73.001,10.771c-22.739,0-47.869-3.589-73-10.771c-9.574-2.394-19.149-3.591-28.723-3.591
				c-40.69,0-74.198,25.132-88.558,67.019c-20.345,56.246-11.968,111.297-2.395,151.984c5.985,22.739,9.574,45.477,13.165,68.217
				c2.393,15.556,4.788,32.31,8.378,49.064l2.392,10.771c11.969,57.445,22.738,114.887,37.098,172.331
				c4.787,16.753,19.148,27.526,35.904,27.526c17.949,0,33.509-11.968,37.099-29.918c3.589-17.953,7.179-35.901,9.574-53.854
				c3.589-17.954,5.983-35.902,9.573-53.855c5.985-31.113,16.755-62.229,31.116-94.543c2.394-5.979,4.788-8.376,5.985-8.376
				c1.195,0,1.195,0,2.393,0h2.391c1.198,1.196,3.591,3.59,5.985,8.376c14.36,32.313,25.132,64.625,31.116,94.543
				c3.591,17.953,5.982,34.706,9.573,53.855c3.588,16.753,5.984,35.899,9.575,53.854c3.587,17.952,19.146,29.918,37.098,29.918
				c16.754,0,31.116-10.773,35.902-28.722c6.476-25.363,2.388-28.648,7.992-54.547c-2.342-11.077-6.185-32.996-8.504-44.081
				c-1.381-6.59-2.322-20.335-4.898-26.554c-1.67-4.031-0.636-9.225-1.548-13.403c-9.094,43.886-16.562,87.589-27.748,131.403
				c0,1.199,0,2.393-2.394,2.393c-1.198,0-3.591-1.193-3.591-3.591c-3.587-16.752-7.181-34.705-9.571-52.653
				c-2.394-17.953-5.984-37.1-9.576-55.051c-5.981-32.312-17.953-67.018-33.509-101.725c-7.18-16.753-20.343-26.326-34.705-27.522
				h-9.573c-14.361,0-27.524,10.77-34.705,27.522c-15.558,34.709-27.525,69.413-33.51,101.725
				c-3.589,17.951-7.18,37.096-9.574,55.051c-3.59,16.755-5.983,34.704-9.574,52.653c0,3.591-2.393,3.591-3.589,3.591
				c-2.394,0-3.59-1.193-3.59-2.393c-14.361-56.247-26.328-113.689-37.099-169.938l-2.393-10.77
				c-3.59-15.559-5.985-32.313-8.377-47.868c-3.59-22.738-7.182-46.674-13.166-70.607c-1.017-4.584-1.942-9.061-2.785-13.456
				c-3.42-17.478-3.746-18.609-4.334-28.117c-3.849-34.347-1.234-63.157,8.316-90.07c13.166-34.706,41.887-51.46,76.592-41.888
				c28.722,7.182,56.248,11.968,82.575,11.968c26.331,0,53.854-4.786,81.378-11.968c34.704-9.573,63.429,5.983,76.591,41.888
				c14.36,37.098,14.36,77.787,1.198,131.643c-5.588,21.236-9.091,44.558-12.454,66.072c4.175-1.861,8.724-1.07,13.506-0.196
				c6.476,1.184,12.961,4.02,19.541,4.202c0.583,0.019,1.096,0.142,1.543,0.344c3.397-21.482,6.918-42.961,12.566-64.441
				c0.951-3.589,1.883-7.288,2.781-11.077c0.277-5.595,4.315-22.125,4.961-24.911C651.709,456.496,652.112,416.849,637.311,375.935z
				"/>
		</g>
		<g>
			<path fill="#4379B4" d="M388.704,546.77c0.141-0.274,0.282-0.549,0.416-0.822c-0.263-0.344-0.431-0.764-0.447-1.252
				c-0.016,0.05-0.03,0.098-0.046,0.146C388.642,545.484,388.665,546.127,388.704,546.77z"/>
			<path fill="#4379B4" d="M448.317,545.106c-0.167,0.55-0.347,1.099-0.518,1.646c0.169-0.012,0.336-0.024,0.506-0.038
				C448.31,546.177,448.311,545.641,448.317,545.106z"/>
		</g>
		<path fill="#4379B4" d="M687.601,502.795c0.318-0.623,0.616-1.257,0.902-1.898c-0.058,0.073-0.117,0.139-0.173,0.21
			C688.116,501.672,687.869,502.235,687.601,502.795z"/>
	</g>
</g>
<g id="Слой_2">
	<g>
		<g>
			<path fill="#4379B4" d="M753.35,602.675c-8.144-21.926-25.688-35.085-46.987-35.085c-5.011,0-10.022,0.628-15.035,1.881
				c-13.156,3.763-26.313,5.64-38.216,5.64c-11.901,0-25.058-1.877-38.214-5.64c-5.012-1.255-10.024-1.881-15.035-1.881
				c-21.303,0-38.842,13.159-46.359,35.085c-10.65,29.444-6.265,58.262-1.254,79.56c3.133,11.905,5.014,23.807,6.893,35.711
				c1.253,8.145,2.504,16.912,4.385,25.686l1.254,5.637c6.264,30.071,11.9,60.142,19.42,90.21
				c2.506,8.771,10.021,14.41,18.794,14.41c9.396,0,17.54-6.264,19.419-15.663c1.879-9.395,3.76-18.792,5.013-28.19
				c1.879-9.396,3.133-18.795,5.012-28.193c3.132-16.286,8.771-32.575,16.291-49.489c1.25-3.133,2.504-4.385,3.131-4.385
				s0.627,0,1.252,0h1.256c0.625,0.627,1.879,1.879,3.131,4.385c7.518,16.914,13.157,33.828,16.287,49.493
				c1.881,9.393,3.135,18.166,5.016,28.189c1.879,8.77,3.132,18.793,5.011,28.19c1.879,9.399,10.026,15.663,19.419,15.663
				c8.772,0,16.29-5.637,18.797-15.033c7.519-29.445,13.782-60.144,19.419-89.587l1.254-6.264
				c1.253-8.145,3.132-16.914,4.385-25.684c1.879-11.907,3.76-23.807,6.893-35.712c0.496-1.881,0.984-3.814,1.454-5.797
				c0.146-2.933,2.26-11.582,2.598-13.041C760.888,644.845,761.098,624.093,753.35,602.675z M735.81,678.477
				c-3.132,11.905-5.013,25.062-6.89,36.963c-1.258,8.143-2.509,16.914-4.388,25.057l-1.254,5.642
				c-6.264,28.815-11.902,59.514-19.418,88.959c0,0.627,0,1.254-1.256,1.254c-0.625,0-1.879-0.627-1.879-1.882
				c-1.879-8.769-3.758-18.167-5.011-27.562c-1.254-9.399-3.133-19.422-5.014-28.82c-3.132-16.914-9.398-35.081-17.541-53.249
				c-3.758-8.77-10.648-13.784-18.168-14.41h-5.014c-7.518,0-14.409,5.637-18.167,14.41c-8.144,18.168-14.407,36.337-17.54,53.249
				c-1.879,9.398-3.758,19.421-5.013,28.82c-1.881,8.768-3.133,18.164-5.014,27.562c0,1.882-1.253,1.882-1.879,1.882
				c-1.253,0-1.881-0.627-1.881-1.254c-7.516-29.445-13.779-59.514-19.416-88.959l-1.256-5.642
				c-1.877-8.143-3.133-16.914-4.386-25.057c-1.877-11.903-3.758-24.432-6.892-36.963c-0.532-2.397-1.015-4.743-1.456-7.043
				c-1.792-9.148-1.962-9.74-2.272-14.718c-2.014-17.979-0.646-33.063,4.355-47.148c4.142-10.921,11.23-18.441,20.168-21.617
				c4.713-3.255,9.952-2.348,15.521-1.33c1.661,0.304,3.321,0.717,4.986,1.166c4.494,1.113,8.936,2.117,13.316,2.973
				c0.411,0.029,0.823,0.054,1.236,0.064c0.74,0.02,1.37,0.212,1.891,0.519c8.97,1.61,17.705,2.565,26.202,2.565
				c13.781,0,28.191-2.504,42.599-6.265c18.168-5.011,33.205,3.132,40.094,21.927C742.698,628.987,742.698,650.284,735.81,678.477z"
				/>
		</g>
		<g>
			<path fill="#4379B4" d="M623.207,692.104c0.075-0.143,0.147-0.285,0.219-0.434c-0.137-0.176-0.225-0.395-0.234-0.65
				c-0.008,0.025-0.014,0.047-0.021,0.073C623.176,691.433,623.189,691.769,623.207,692.104z"/>
			<path fill="#4379B4" d="M654.414,691.233c-0.087,0.286-0.181,0.577-0.271,0.86c0.09-0.006,0.178-0.01,0.265-0.021
				C654.41,691.794,654.41,691.514,654.414,691.233z"/>
		</g>
		<path fill="#4379B4" d="M779.675,669.084c0.166-0.325,0.325-0.657,0.473-0.993c-0.032,0.035-0.063,0.071-0.092,0.106
			C779.944,668.494,779.817,668.79,779.675,669.084z"/>
	</g>
</g>
<path fill="#4379B4" d="M555.619,602.526c-2.174-57.979,4.606-69.535,12.668-80.34c9.302-12.467,19.987-20.779,33.839-25.528
	c13.852-4.749,31.068-6.134,32.653-6.927c1.582-0.79-0.251-10.544,13.257-11.278c18.206-0.99,19.194,8.51,19.194,10.093
	s26.321-0.792,50.265,14.643c10.015,6.455,28.101,22.954,32.059,42.35c3.957,19.393,5.539,56.201,1.979,58.574
	c-3.562,2.375-29.286,17.216-29.286,17.216s-57.74,5.663-91.229,2.771C603.51,621.724,555.845,608.474,555.619,602.526z"/>
<path fill="#4379B4" d="M504.567,642.897c-0.165-2.945,3.958-9.497,7.65-10.818c3.694-1.318,36.675-22.423,39.841-23.746
	c3.168-1.319,24.013,14.513,51.451,17.942c27.442,3.431,100.527,8.179,108.18,2.639c7.652-5.542-37.634,23.863-59.103,29.552
	c-21.899,5.804-51.838,10.036-67.546,10.291C568.683,669.019,504.831,647.647,504.567,642.897z"/>
<path fill="#4379B4" d="M643.125,314.535c-25.739-2.801-57.878-10.866-57.878-10.866s-6.057-49.382-9.059-66.54
	c-3.001-17.16-7.84-39.251-18.075-57.226c-10.268-17.972-40.938-43.391-67.195-45.075c-26.283-1.616-73.522,14.868-89.949,21.75
	c-16.427,6.884-29.949,18.023-58.992,41.613c-29.043,23.592-32.97,37.135-33.879,42.186c-0.909,5.05-0.356,55.334-0.356,55.334
	s-26.707,7.063-71.953,38.127c-43.345,29.752-53.213,85.365-40.307,99.873c12.904,14.473,39.563,11.66,74.56,9.048
	c34.996-2.61,201.35-37.162,258.859-48.58c0,0,48.009-11.006,111.085-22.666c63.077-11.658,69.945-20.883,72.235-31.569
	C714.577,329.228,668.864,317.27,643.125,314.535z M322.515,226.146c4.454,0.175,38.109-31.847,53.117-43.947
	c14.077-11.295,46.645-21.732,71.862-31.751c25.219-10.019,17.113-5.619,24.089-8.51c6.942-2.888,21.057-4.96,18.601-1.866
	c-2.454,3.093-7.226,4.758-20.478,7.557c-13.25,2.83-33.066,8.865-64.435,23.233c-31.368,14.367-55.654,35.894-64.861,47.079
	c-9.204,11.183-16.89,13.01-20.318,11.299C320.06,229.242,318.061,225.976,322.515,226.146z M585.923,333.108
	c0,0-17.023,19.188-58.47,27.687c-41.442,8.498-121.333,18.099-190.771,11.616c-18.926-1.77-26.6-8.871-26.6-8.871l-1.545-35.672
	c0,0,0.804,5.54,24.276,7.311c23.471,1.737,146.9,5.916,187.155-4.755c40.254-10.672,64.823-23.417,64.823-23.417L585.923,333.108
	L585.923,333.108z"/>
<g id="Слой_2_4_">
	<circle fill="none" stroke="#4379B4" stroke-width="10" cx="507.284" cy="501.579" r="481.476"/>
</g>
</svg>
