<?xml version="1.0" encoding="utf-8"?>
<!-- Generator: Adobe Illustrator 13.0.0, SVG Export Plug-In . SVG Version: 6.00 Build 14948)  -->
<!DOCTYPE svg PUBLIC "-//W3C//DTD SVG 1.1//EN" "http://www.w3.org/Graphics/SVG/1.1/DTD/svg11.dtd">
<svg version="1.1" id="Слой_1" xmlns="http://www.w3.org/2000/svg" xmlns:xlink="http://www.w3.org/1999/xlink" x="0px" y="0px"
	 width="1000px" height="1000px" viewBox="0 0 1000 1000" enable-background="new 0 0 1000 1000" xml:space="preserve">
<g id="Слой_2_1_">
	<circle fill="none" stroke="#4379B4" stroke-width="10" cx="498.825" cy="495.097" r="481.476"/>
</g>
<g id="Layer_1">
	<g>
		<g>
			<path fill="#4379B4" d="M737.078,403.96c6.732-42.203,7.227-91.078-11.016-141.515c-19.18-51.634-60.486-82.614-110.643-82.614
				c-11.803,0-23.605,1.475-35.408,4.426c-30.979,8.852-61.961,13.277-89.989,13.277c-28.03,0-59.009-4.425-89.989-13.277
				c-11.803-2.951-23.605-4.426-35.407-4.426c-50.158,0-91.465,30.98-109.167,82.614c-25.079,69.336-14.752,137.197-2.95,187.354
				c7.376,28.03,11.801,56.06,16.228,84.089c2.951,19.18,5.901,39.832,10.326,60.486l2.952,13.275
				c14.752,70.814,28.029,141.623,45.731,212.438c5.901,20.652,23.605,33.93,44.259,33.93c22.127,0,41.308-14.754,45.732-36.883
				c4.426-22.127,8.851-44.256,11.802-66.385c4.424-22.129,7.375-44.26,11.801-66.387c7.377-38.355,20.654-76.713,38.357-116.543
				c2.95-7.377,5.901-10.328,7.376-10.328c1.476,0,1.476,0,2.95,0h2.95c1.477,1.477,4.428,4.426,7.377,10.328
				c17.703,39.83,30.98,79.662,38.355,116.543c4.426,22.127,7.379,42.783,11.803,66.387c4.426,20.654,7.377,44.258,11.803,66.385
				c4.426,22.129,23.605,36.883,45.732,36.883c20.656,0,38.357-13.277,44.258-35.408c17.705-69.336,32.455-141.621,45.734-210.959
				l2.949-14.752c2.953-19.18,7.375-39.832,10.326-60.486c4.426-28.029,8.852-56.059,16.229-84.088
				c1.172-4.43,2.32-8.986,3.424-13.658C731.305,427.771,736.285,407.396,737.078,403.96z M684.756,440.95
				c-7.375,28.029-11.803,59.009-16.229,87.04c-2.951,19.178-5.9,39.832-10.326,59.01l-2.951,13.275
				c-14.752,67.863-28.031,140.148-45.732,209.486c0,1.475,0,2.949-2.951,2.949c-1.477,0-4.424-1.475-4.424-4.424
				c-4.426-20.654-8.852-42.783-11.803-64.912c-2.951-22.127-7.375-45.732-11.803-67.863
				c-7.377-39.828-22.129-82.611-41.309-125.395c-8.85-20.652-25.078-32.455-42.781-33.93h-11.801
				c-17.702,0-33.93,13.277-42.782,33.93c-19.177,42.783-33.93,85.566-41.307,125.395c-4.426,22.131-8.852,45.734-11.802,67.863
				c-4.425,20.652-7.375,42.783-11.802,64.912c0,4.424-2.95,4.424-4.426,4.424c-2.95,0-4.424-1.475-4.424-2.951
				c-17.703-69.336-32.457-140.148-45.733-209.484l-2.95-13.277c-4.426-19.178-7.376-39.83-10.327-59.008
				c-4.425-28.031-8.851-57.534-16.227-87.04c-1.254-5.647-2.394-11.167-3.435-16.588c-4.214-21.545-4.617-22.938-5.342-34.656
				c-4.745-42.343-1.521-77.856,10.251-111.034c16.229-42.782,51.635-63.436,94.417-51.633
				c35.406,8.852,69.336,14.753,101.791,14.753c32.455,0,66.387-5.901,100.316-14.753c42.781-11.801,78.189,7.376,94.416,51.633
				C700.982,324.405,700.982,374.563,684.756,440.95z"/>
		</g>
		<g>
			<path fill="#4379B4" d="M419.599,473.038c0.175-0.336,0.347-0.674,0.513-1.016c-0.324-0.424-0.53-0.938-0.551-1.54
				c-0.021,0.06-0.038,0.119-0.057,0.18C419.521,471.454,419.551,472.248,419.599,473.038z"/>
			<path fill="#4379B4" d="M493.084,470.988c-0.206,0.678-0.427,1.353-0.639,2.028c0.209-0.018,0.417-0.031,0.624-0.047
				C493.076,472.31,493.077,471.648,493.084,470.988z"/>
		</g>
		<path fill="#4379B4" d="M788.057,418.831c0.391-0.771,0.76-1.551,1.111-2.338c-0.07,0.086-0.146,0.169-0.217,0.255
			C788.688,417.446,788.387,418.14,788.057,418.831z"/>
	</g>
</g>
<g id="Слой_2">
	<circle fill="#4379B4" cx="735.561" cy="249.621" r="116.002"/>
</g>
<g id="Слой_3">
	<rect x="721.404" y="154.839" fill="#F9F9F9" width="32.328" height="189.93"/>
</g>
<g id="Слой_4">
	<rect x="636.787" y="235.14" fill="#F9F9F9" width="195.271" height="33.238"/>
</g>
</svg>
