<?xml version="1.0" encoding="utf-8"?>
<!-- Generator: Adobe Illustrator 13.0.0, SVG Export Plug-In . SVG Version: 6.00 Build 14948)  -->
<!DOCTYPE svg PUBLIC "-//W3C//DTD SVG 1.1//EN" "http://www.w3.org/Graphics/SVG/1.1/DTD/svg11.dtd">
<svg version="1.1" id="Слой_1" xmlns="http://www.w3.org/2000/svg" xmlns:xlink="http://www.w3.org/1999/xlink" x="0px" y="0px"
	 width="1000px" height="1000px" viewBox="0 0 1000 1000" enable-background="new 0 0 1000 1000" xml:space="preserve">
<g id="Слой_1_1_">
	<g id="Layer_1">
		<g>
			<g>
				<path fill="#4379B4" d="M734.035,411.748c6.618-41.486,7.104-89.528-10.826-139.105
					c-18.854-50.754-59.455-81.207-108.761-81.207c-11.603,0-23.202,1.45-34.807,4.35c-30.447,8.702-60.901,13.051-88.455,13.051
					c-27.553,0-58.005-4.35-88.456-13.051c-11.604-2.899-23.203-4.35-34.805-4.35c-49.304,0-89.908,30.453-107.308,81.207
					c-24.652,68.155-14.502,134.86-2.9,184.165c7.251,27.555,11.601,55.106,15.951,82.658c2.899,18.853,5.801,39.151,10.151,59.452
					l2.9,13.053c14.502,69.606,27.552,139.211,44.953,208.817c5.799,20.302,23.202,33.354,43.503,33.354
					c21.751,0,40.604-14.503,44.954-36.254c4.353-21.751,8.701-43.503,11.604-65.254c4.351-21.75,7.25-43.503,11.603-65.254
					c7.25-37.705,20.301-75.407,37.701-114.561c2.899-7.25,5.8-10.149,7.25-10.149c1.451,0,1.451,0,2.896,0h2.899
					c1.451,1.45,4.352,4.354,7.25,10.149c17.401,39.152,30.453,78.308,37.705,114.561c4.349,21.751,7.25,42.055,11.601,65.254
					c4.354,20.302,7.25,43.503,11.604,65.254c4.349,21.751,23.201,36.255,44.951,36.255c20.302,0,37.702-13.053,43.506-34.806
					c17.397-68.155,31.897-139.209,44.951-207.366l2.896-14.502c2.898-18.852,7.25-39.15,10.149-59.453
					c4.35-27.554,8.698-55.104,15.949-82.655c1.149-4.354,2.279-8.833,3.365-13.423
					C728.361,435.152,733.258,415.124,734.035,411.748z M682.604,448.106c-7.25,27.551-11.598,58.005-15.946,85.558
					c-2.898,18.852-5.8,39.152-10.15,58.005l-2.896,13.049c-14.502,66.707-27.557,137.765-44.952,205.917c0,1.45,0,2.9-2.902,2.9
					c-1.448,0-4.348-1.45-4.348-4.354c-4.354-20.303-8.704-42.053-11.604-63.807c-2.896-21.75-7.249-44.953-11.604-66.706
					c-7.25-39.147-21.749-81.204-40.604-123.257c-8.701-20.303-24.649-31.905-42.054-33.354H483.94
					c-17.401,0-33.354,13.055-42.056,33.354c-18.853,42.053-33.354,84.104-40.604,123.257c-4.354,21.753-8.699,44.956-11.604,66.706
					c-4.35,20.303-7.249,42.056-11.601,63.805c0,4.354-2.9,4.354-4.352,4.354c-2.898,0-4.351-1.45-4.351-2.9
					c-17.402-68.156-31.904-137.761-44.953-205.917l-2.897-13.049c-4.353-18.854-7.252-39.155-10.15-58.005
					c-4.35-27.551-8.701-56.555-15.952-85.558c-1.233-5.555-2.354-10.979-3.375-16.308c-4.144-21.177-4.539-22.547-5.251-34.063
					c-4.665-41.623-1.495-76.53,10.077-109.146c15.951-42.053,50.753-62.354,92.807-50.753
					c34.806,8.702,68.156,14.502,100.06,14.502c31.902,0,65.256-5.8,98.605-14.502c42.055-11.6,76.857,7.251,92.812,50.753
					C698.557,333.548,698.557,382.852,682.604,448.106z"/>
			</g>
			<g>
				<path fill="#4379B4" d="M421.964,479.649c0.174-0.333,0.341-0.664,0.505-0.998c-0.316-0.417-0.521-0.927-0.542-1.517
					c-0.017,0.062-0.037,0.117-0.054,0.181C421.887,478.092,421.917,478.872,421.964,479.649z"/>
				<path fill="#4379B4" d="M494.197,477.632c-0.203,0.667-0.418,1.329-0.627,1.995c0.205-0.018,0.405-0.03,0.609-0.048
					C494.189,478.932,494.191,478.282,494.197,477.632z"/>
			</g>
			<path fill="#4379B4" d="M784.146,426.364c0.384-0.756,0.743-1.523,1.091-2.298c-0.068,0.085-0.146,0.168-0.213,0.25
				C784.767,425.002,784.47,425.685,784.146,426.364z"/>
		</g>
		<path fill="#4379B4" d="M489.739,252.342l-2.797,277.132c0,0-22.864,5.969-28.828,10.938c-5.963,4.97-22.861,43.731-27.832,58.646
			c-4.97,14.91-28.826,124.252-29.82,133.196c-0.993,8.948-10.455,75.941-11.927,82.504c-1.473,6.563-13.917,6.957-16.898,3.979
			c-2.979-2.982-11.928-4.973-17.892-37.771c-5.964-32.803-14.909-71.569-20.874-95.425c-5.964-23.854-29.82-199.795-38.766-219.676
			c-8.946-19.879-23.856-112.32-21.868-131.208c1.987-18.887,32.802-89.461,53.676-100.394c20.874-10.934,65.604-15.905,84.49-7.953
			C429.29,234.255,486.573,254.525,489.739,252.342"/>
	</g>
	<g id="Слой_3">
		<path fill="#4379B4" d="M656.577,170.45c-0.202,4.396-3.931,7.796-8.328,7.594l-0.991-0.046c-4.396-0.203-7.797-3.932-7.595-8.327
			l1.559-33.833c0.203-4.398,3.935-7.798,8.327-7.595l0.993,0.046c4.397,0.203,7.799,3.931,7.596,8.328L656.577,170.45z"/>
	</g>
	<g id="Слой_4">
		<path fill="#4379B4" d="M694.493,181.028c-2.643,5.682-8.013,8.786-12.004,6.931l-0.902-0.417
			c-3.993-1.854-5.089-7.963-2.451-13.643l20.294-43.721c2.641-5.683,8.016-8.786,12.005-6.934l0.903,0.419
			c3.993,1.854,5.088,7.962,2.45,13.644L694.493,181.028z"/>
	</g>
	<g id="Слой_5">
		<path fill="#4379B4" d="M730.075,203.41c-6.229,6.365-13.825,9.031-16.972,5.952l-0.714-0.695
			c-3.146-3.078-0.646-10.733,5.576-17.098l47.907-48.981c6.226-6.367,13.824-9.031,16.972-5.953l0.71,0.695
			c3.147,3.077,0.651,10.732-5.573,17.098L730.075,203.41z"/>
	</g>
	<g id="Слой_6">
		<path fill="#4379B4" d="M758.138,243.455c-7.014,4.486-14.621,5.117-16.993,1.408l-0.534-0.836
			c-2.372-3.708,1.393-10.352,8.404-14.837l53.975-34.523c7.012-4.487,14.621-5.117,16.993-1.41l0.532,0.838
			c2.374,3.708-1.392,10.351-8.401,14.837L758.138,243.455z"/>
	</g>
	<g id="Слой_7">
		<path fill="#4379B4" d="M766.482,289.931c-6.327,1.422-12.241-0.907-13.204-5.202l-0.221-0.969
			c-0.965-4.295,3.388-8.929,9.714-10.352l48.694-10.945c6.331-1.422,12.243,0.908,13.206,5.202l0.216,0.97
			c0.971,4.296-3.381,8.929-9.707,10.352L766.482,289.931z"/>
	</g>
	<g id="Слой_8">
		<path fill="#4379B4" d="M768.091,331.487c-3.866-0.102-6.909-3.753-6.792-8.154l0.025-0.993c0.117-4.401,3.347-7.883,7.215-7.781
			l29.768,0.789c3.87,0.103,6.912,3.754,6.795,8.153l-0.024,0.994c-0.116,4.401-3.347,7.883-7.212,7.782L768.091,331.487z"/>
	</g>
</g>
<g id="Слой_2">
	<circle fill="none" stroke="#4379B4" stroke-width="10" cx="501.81" cy="496.608" r="481.476"/>
</g>
<g id="Слой_2_1_">
	<line fill="none" stroke="#4379B4" stroke-width="12" x1="489.091" y1="17.99" x2="489.091" y2="979.315"/>
</g>
</svg>
