<?xml version="1.0" encoding="utf-8"?>
<!-- Generator: Adobe Illustrator 13.0.0, SVG Export Plug-In . SVG Version: 6.00 Build 14948)  -->
<!DOCTYPE svg PUBLIC "-//W3C//DTD SVG 1.1//EN" "http://www.w3.org/Graphics/SVG/1.1/DTD/svg11.dtd">
<svg version="1.1" xmlns="http://www.w3.org/2000/svg" xmlns:xlink="http://www.w3.org/1999/xlink" x="0px" y="0px" width="1000px"
	 height="1000px" viewBox="0 0 1000 1000" enable-background="new 0 0 1000 1000" xml:space="preserve">
<g id="Слой_1">
	<g id="Layer_1">
		<g>
			<g>
				<path fill="#4379B4" d="M694.057,402.224c5.444-34.119,5.843-73.63-8.904-114.406c-15.506-41.742-48.899-66.787-89.449-66.787
					c-9.541,0-19.082,1.192-28.621,3.577c-25.044,7.157-50.094,10.734-72.753,10.734c-22.658,0-47.704-3.578-72.749-10.734
					c-9.541-2.384-19.083-3.577-28.625-3.577c-40.549,0-73.943,25.045-88.254,66.787c-20.274,56.054-11.927,110.915-2.385,151.464
					c5.963,22.66,9.541,45.321,13.12,67.981c2.385,15.504,4.771,32.201,8.348,48.898l2.386,10.734
					c11.928,57.244,22.659,114.492,36.971,171.74c4.772,16.697,19.082,27.43,35.779,27.43c17.89,0,33.395-11.928,36.973-29.818
					c3.578-17.887,7.156-35.777,9.542-53.668c3.577-17.889,5.962-35.777,9.542-53.666c5.963-31.01,16.696-62.018,31.008-94.219
					c2.384-5.963,4.771-8.35,5.962-8.35c1.196,0,1.196,0,2.385,0h2.386c1.192,1.195,3.578,3.578,5.963,8.35
					c14.313,32.201,25.045,64.402,31.01,94.219c3.577,17.889,5.961,34.588,9.542,53.666c3.576,16.699,5.963,35.781,9.539,53.668
					c3.577,17.891,19.083,29.818,36.972,29.818c16.697,0,31.01-10.734,35.779-28.623c14.313-56.055,26.239-114.492,36.974-170.547
					l2.386-11.928c2.382-15.504,5.961-32.201,8.347-48.898c3.579-22.659,7.156-45.318,13.12-67.98
					c0.945-3.58,1.876-7.265,2.767-11.041C689.39,421.472,693.416,405,694.057,402.224z M651.759,432.129
					c-5.964,22.658-9.543,47.706-13.12,70.363c-2.386,15.504-4.771,32.201-8.351,47.707l-2.382,10.732
					c-11.928,54.861-22.66,113.301-36.972,169.355c0,1.191,0,2.385-2.386,2.385c-1.192,0-3.579-1.193-3.579-3.578
					c-3.577-16.697-7.156-34.586-9.541-52.475c-2.387-17.891-5.964-36.973-9.543-54.861c-5.963-32.201-17.887-66.789-33.393-101.375
					c-7.156-16.697-20.272-26.238-34.588-27.431h-9.539c-14.313,0-27.432,10.733-34.586,27.431
					c-15.506,34.586-27.432,69.174-33.395,101.375c-3.578,17.889-7.156,36.971-9.541,54.861
					c-3.579,16.695-5.963,34.584-9.542,52.475c0,3.578-2.385,3.578-3.578,3.578c-2.385,0-3.577-1.193-3.577-2.385
					c-14.312-56.055-26.239-113.301-36.972-169.355l-2.384-10.732c-3.578-15.506-5.964-32.203-8.349-47.707
					c-3.578-22.658-7.156-46.513-13.121-70.363c-1.012-4.566-1.933-9.029-2.775-13.41c-3.406-17.417-3.733-18.544-4.318-28.017
					c-3.836-34.232-1.229-62.941,8.287-89.763c13.12-34.587,41.743-51.284,76.33-41.742c28.623,7.156,56.052,11.926,82.291,11.926
					s53.67-4.771,81.098-11.926c34.589-9.541,63.214,5.962,76.332,41.742C664.878,337.91,664.878,378.458,651.759,432.129z"/>
			</g>
			<g>
				<path fill="#4379B4" d="M437.397,458.07c0.142-0.273,0.28-0.546,0.416-0.822c-0.263-0.342-0.428-0.76-0.446-1.246
					c-0.017,0.049-0.03,0.098-0.045,0.147C437.334,456.789,437.359,457.43,437.397,458.07z"/>
				<path fill="#4379B4" d="M496.804,456.41c-0.165,0.548-0.343,1.093-0.516,1.641c0.17-0.014,0.336-0.024,0.505-0.038
					C496.797,457.479,496.799,456.945,496.804,456.41z"/>
			</g>
			<path fill="#4379B4" d="M735.271,414.246c0.316-0.623,0.614-1.253,0.897-1.89c-0.058,0.069-0.117,0.136-0.175,0.206
				C735.781,413.126,735.539,413.687,735.271,414.246z"/>
		</g>
	</g>
	<g id="Слой_2">
		<path opacity="0.75" fill="#4379B4" enable-background="new    " d="M33.586,626.518c20.597-10.006,74.916-62.896,99.218-80.049
			c24.3-17.154,104.287-71.841,121.503-82.908c20.013-12.865,47.172-30.019,50.031-17.153
			c2.859,12.865,25.729,135.797,28.588,151.522c2.859,15.723,18.584,94.344,22.872,108.639c4.288,14.293,10.006,47.17,17.154,48.602
			c7.146,1.428,11.91,13.215,25.967,10.896c14.057-2.32-13.104,4.826-21.68-3.75c-8.577-8.578-14.294-11.438-22.871-31.449
			c-8.578-20.012-15.725-44.313-21.442-62.895c-5.718-18.584-40.024-125.793-57.178-132.939
			c-17.153-7.148-118.645,37.164-144.375,47.172c-25.729,10.006-80.049,40.025-87.195,45.742
			C37.032,633.664,33.586,626.518,33.586,626.518z"/>
		<path opacity="0.29" fill="#F69321" enable-background="new    " d="M-110.203,642.24"/>
	</g>
	<g id="Слой_3">
		<path opacity="0.75" fill="#4379B4" enable-background="new    " d="M954.656,626.988c-20.6-10.004-74.918-62.895-99.219-80.047
			c-24.301-17.154-104.286-71.842-121.503-82.909c-20.014-12.865-47.174-30.019-50.032-17.153
			c-2.857,12.866-25.729,135.799-28.587,151.523c-2.858,15.723-18.583,94.342-22.873,108.637
			c-4.288,14.295-10.006,47.172-17.151,48.602c-7.147,1.43-11.912,13.217-25.969,10.896s13.103,4.828,21.68-3.75
			c8.576-8.576,14.293-11.438,22.869-31.449c8.577-20.01,15.726-44.311,21.444-62.893c5.716-18.584,40.025-125.791,57.177-132.939
			c17.152-7.148,118.645,37.164,144.374,47.172c25.729,10.006,80.048,40.023,87.196,45.74
			C951.21,634.135,954.656,626.988,954.656,626.988z"/>
	</g>
</g>
<g id="Слой_2_1_">
	<circle fill="none" stroke="#4379B4" stroke-width="10" cx="493.843" cy="505.598" r="473.977"/>
</g>
</svg>
