<?xml version="1.0" encoding="utf-8"?>
<!-- Generator: Adobe Illustrator 13.0.0, SVG Export Plug-In . SVG Version: 6.00 Build 14948)  -->
<!DOCTYPE svg PUBLIC "-//W3C//DTD SVG 1.1//EN" "http://www.w3.org/Graphics/SVG/1.1/DTD/svg11.dtd">
<svg version="1.1" xmlns="http://www.w3.org/2000/svg" xmlns:xlink="http://www.w3.org/1999/xlink" x="0px" y="0px" width="1000px"
	 height="1000px" viewBox="0 0 1000 1000" enable-background="new 0 0 1000 1000" xml:space="preserve">
<g id="Слой_1">
	<g id="Layer_1">
		<g>
			<g>
				<path fill="#4379B4" d="M740.905,348.669c12.162-34.225,20.145-74.993,12.715-119.969c-8.03-46.121-37.75-78.41-79.667-86.179
					c-9.861-1.829-19.955-2.425-30.272-1.788c-27.263,2.598-53.838,1.498-77.259-2.844c-23.428-4.343-48.63-12.841-73.149-25.038
					c-9.405-4.295-19.039-7.355-28.903-9.184c-41.918-7.771-81.235,11.721-104.028,52.127
					c-31.702,54.059-33.584,112.369-31.491,156.114c1.821,24.568,1.177,48.678,0.534,72.786c-0.506,16.484-1.238,34.202-0.74,52.146
					l0.409,11.553c1.357,61.465,1.484,122.693,5.307,184.615c1.731,18.172,14.468,32.01,31.728,35.207
					c18.493,3.434,36.807-5.925,43.935-23.732c7.124-17.808,14.253-35.617,20.146-53.649c7.125-17.809,13.02-35.845,20.147-53.65
					c12.106-30.91,29.145-60.909,50.111-91.454c3.607-5.707,6.531-7.715,7.76-7.486c1.235,0.228,1.235,0.228,2.467,0.457
					l2.467,0.457c1,1.463,3.012,4.385,4.563,9.772c8.626,36.03,13.549,71.377,14,103.335c0.271,19.18-0.464,36.897-0.419,57.311
					c0.495,17.943-0.694,38.125-0.425,57.304c0.271,19.181,14.016,34.479,32.507,37.912c17.257,3.193,34.108-5.156,42.47-22.736
					c25.533-55.204,49.061-113.324,70.897-169.212l4.754-11.873c5.437-15.568,12.336-32.144,18-48.945
					c8.041-22.739,16.081-45.477,26.589-67.759c1.663-3.518,3.327-7.15,4.976-10.882
					C732.388,367.674,739.709,351.418,740.905,348.669z M691.446,371.477c-10.507,22.281-19.005,47.484-27.043,70.223
					c-5.442,15.57-11.105,32.372-17.776,47.715l-4.518,10.639c-22.846,54.424-45.139,112.776-70.672,167.977
					c-0.23,1.232-0.46,2.466-2.925,2.01c-1.231-0.23-3.472-1.918-3.014-4.384c-0.498-17.945-0.767-37.123,0.194-56.074
					c0.964-18.949,0.922-39.363,0.651-58.539c0.004-34.428-5.695-72.465-15.097-111.189c-4.197-18.631-15.928-31.008-30.497-34.983
					l-9.862-1.829c-14.794-2.742-30.411,5.84-41.008,21.729c-22.653,32.783-41.612,66.249-53.947,98.396
					c-7.125,17.802-14.48,36.841-20.374,54.88c-6.897,16.571-12.792,34.611-19.922,52.414c-0.685,3.701-3.15,3.243-4.382,3.014
					c-2.466-0.456-3.47-1.917-3.241-3.151c-4.051-60.688-5.411-122.149-5.764-182.148l-0.408-11.552
					c-0.727-16.712,0.005-34.429,0.513-50.914c0.643-24.109,1.515-49.453-0.08-75.251c-0.172-4.913-0.271-9.704-0.3-14.395
					c-0.183-18.657-0.305-19.884,0.905-29.79c2.593-36.121,10.789-65.298,25.768-91.202c20.19-33.239,52.977-45.013,86.902-28.521
					c28.216,12.883,55.656,23.071,82.778,28.098c27.124,5.029,56.396,5.354,86.12,3.212c37.58-3.233,64.197,18.277,70.903,57.777
					C723.063,276.595,715.292,318.512,691.446,371.477z"/>
			</g>
			<g>
				<path fill="#4379B4" d="M464.887,357.213c0.2-0.255,0.395-0.509,0.586-0.77c-0.205-0.403-0.298-0.866-0.222-1.373
					c-0.025,0.048-0.049,0.095-0.075,0.143C465.067,355.879,464.97,356.546,464.887,357.213z"/>
				<path fill="#4379B4" d="M526.615,366.885c-0.272,0.534-0.566,1.063-0.847,1.597c0.178,0.019,0.352,0.039,0.53,0.057
					C526.402,367.987,526.508,367.435,526.615,366.885z"/>
			</g>
			<path fill="#4379B4" d="M781.199,368.994c0.451-0.583,0.878-1.178,1.292-1.782c-0.07,0.061-0.146,0.117-0.219,0.178
				C781.943,367.935,781.586,368.468,781.199,368.994z"/>
		</g>
	</g>
	<g id="Слой_2_1_" display="none">
		<g id="Слой_2_2_" display="inline">
			<path opacity="0.75" fill="#4379B4" enable-background="new    " d="M-113.782,586.102
				c29.033-14.104,105.596-88.652,139.848-112.83c34.252-24.179,146.993-101.261,171.26-116.859
				c28.207-18.133,66.489-42.312,70.519-24.178c4.03,18.135,36.265,191.408,40.294,213.571
				c4.03,22.163,28.548,273.965,48.36,270.695s-20.911,19.09-33,7c-12.089-12.089-31.942-142.808-40-169
				s-31.776-187.272-55.954-197.347C203.369,447.078,60.317,509.537,24.05,523.64c-36.265,14.104-112.829,56.417-122.902,64.476
				C-108.924,596.174-113.782,586.102-113.782,586.102z"/>
			<path opacity="0.29" fill="#4379B4" enable-background="new    " d="M-316.451,608.263"/>
		</g>
	</g>
	<g id="Слой_3">
		<path fill="#4379B4" d="M39.669,619.598c6.191-5.74,60.234-49.105,75.581-61.783c15.346-12.677,163.305-115.624,174.802-112.087
			c8.675,2.669,21.35,95.408,24.019,110.084c2.669,14.681,18.013,104.082,19.349,111.421c1.333,7.34-27.355,5.335-27.355,5.335
			s-21.297-101.856-24.018-109.412c-6.006-16.682-10.008-36.697-22.684-32.694c-89.67,28.316-216.168,90.068-216.168,90.068
			L39.669,619.598z"/>
	</g>
	<g id="Слой_4">
		<path fill="#4379B4" d="M959.246,624.936c-6.191-5.741-60.236-49.107-75.579-61.78c-15.345-12.682-163.31-115.627-174.805-112.091
			c-8.671,2.67-21.35,95.409-24.018,110.085c-2.667,14.679-18.014,104.083-19.346,111.418c-1.34,7.34,27.352,5.341,27.352,5.341
			s21.301-101.86,24.02-109.419c6.005-16.679,10.008-36.694,22.685-32.693c89.672,28.321,216.168,90.072,216.168,90.072
			L959.246,624.936z"/>
	</g>
	<g id="Слой_5">
		<path fill="#4379B4" d="M766.956,144.97c64.422,0,116.643,52.222,116.643,116.641c0,64.418-52.221,116.641-116.643,116.641
			c-64.417,0-116.641-52.223-116.641-116.641C650.315,197.192,702.539,144.97,766.956,144.97z"/>
	</g>
	<g id="Слой_8">
		<rect x="680.713" y="239.696" fill="#FFFFFF" width="172.489" height="43.831"/>
	</g>
	<g id="Слой_6">
		<path fill="#4379B4" d="M306.064,672.567c3.821,21.981,28.112,120.36,30.909,131.981c10.67,44.326,27.91,77.979,70.595,81.263
			c18.029,1.388,49.631-5.57,66.489-43.504c29.553-66.489,23.806-160.069,23.806-160.069s-13.953-1.365-13.134,22.165
			c4.522,129.743-45.148,169.919-77.982,164.173c-45.539-7.973-50.073-58.281-73.327-201.344
			C332.121,659.239,306.064,672.567,306.064,672.567z"/>
	</g>
	<g id="Слой_7">
		<path fill="#4379B4" d="M693.229,674.852c-3.904,21.981-28.138,119.945-30.993,131.567c-10.899,44.323-28.506,77.98-72.103,81.265
			c-18.413,1.388-50.691-5.573-67.909-43.505c-30.183-66.49-24.362-161.94-24.362-161.94s13.409-4.653,13.465,24.033
			c0.254,129.829,46.11,169.922,79.645,164.174c46.512-7.97,51.143-58.28,74.893-201.341
			C667.193,661.112,693.229,674.852,693.229,674.852z"/>
	</g>
</g>
<g id="Слой_2">
	<circle fill="none" stroke="#4379B4" stroke-width="10" cx="500.335" cy="492.55" r="481.476"/>
</g>
</svg>
